<svg width="25" height="30" viewBox="0 0 25 30" fill="none" xmlns="http://www.w3.org/2000/svg">
<path d="M21.0582 15.9388C21.0582 13.5331 22.3905 11.4344 24.367 10.323C23.3349 9.07306 21.7824 7.95292 20.0711 7.62423C17.7374 7.17553 16.4062 7.92265 15.5451 8.22214C14.6839 8.52164 13.5401 8.79087 13.5401 8.79087C13.5401 8.79087 12.3973 8.52164 11.5351 8.22214C10.675 7.92265 9.34385 7.17444 7.01017 7.62315C4.67649 8.07186 2.63863 9.99318 1.81034 11.7058C0.212925 15.0111 0.870298 19.1695 1.99879 22.1601C3.12619 25.1519 6.10738 29.3319 8.41914 29.6681C10.0637 29.9071 11.0815 28.7858 13.5401 28.5015C15.9987 28.7858 17.0165 29.9071 18.661 29.6681C20.9728 29.3319 23.954 25.1519 25.0814 22.1601C25.1088 22.0866 25.1372 22.0109 25.1646 21.9352C22.7576 20.9816 21.0582 18.6559 21.0582 15.9388ZM12.9561 7.07713C12.9561 7.07713 15.2427 7.37663 17.3189 5.04985C19.3951 2.72307 18.8045 0.521709 18.8045 0.521709C18.8045 0.521709 16.518 0.222211 14.4418 2.54899C12.3656 4.87577 12.9561 7.07713 12.9561 7.07713Z" fill="black"/>
</svg>
