<svg width="64" height="64" viewBox="0 0 64 64" fill="none" xmlns="http://www.w3.org/2000/svg">
<path d="M43.5625 17.1211H20.4375C17.4312 17.1211 14.9941 19.5582 14.9941 22.5644V41.4346C14.9941 44.4409 17.4312 46.8779 20.4375 46.8779H43.5625C46.5688 46.8779 49.0059 44.4409 49.0059 41.4346V22.5644C49.0059 19.5582 46.5688 17.1211 43.5625 17.1211Z" fill="black"/>
<path fill-rule="evenodd" clip-rule="evenodd" d="M20.1654 23.2114C20.4493 23.2114 20.7216 23.0986 20.9224 22.8978C21.1231 22.6971 21.2359 22.4248 21.2359 22.1409C21.2359 21.8569 21.1231 21.5846 20.9224 21.3839C20.7216 21.1831 20.4493 21.0703 20.1654 21.0703C19.9113 21.0694 19.6646 21.1559 19.4668 21.3153C19.3406 21.4129 19.2383 21.538 19.1676 21.681C19.0968 21.824 19.0596 21.9813 19.0586 22.1409C19.061 22.2838 19.0914 22.4249 19.1484 22.5561C19.2053 22.6873 19.2874 22.806 19.3902 22.9054C19.493 23.0048 19.6144 23.083 19.7474 23.1355C19.8804 23.188 20.0224 23.2138 20.1654 23.2114V23.2114Z" fill="#FF4C6F"/>
<path d="M23.93 23.2114C24.5413 23.2114 25.0369 22.7321 25.0369 22.1408C25.0369 21.5496 24.5413 21.0703 23.93 21.0703C23.3188 21.0703 22.8232 21.5496 22.8232 22.1408C22.8232 22.7321 23.3188 23.2114 23.93 23.2114Z" fill="#CCD2DC"/>
<path fill-rule="evenodd" clip-rule="evenodd" d="M27.704 23.2107C27.914 23.2036 28.1173 23.1348 28.2885 23.013C28.4597 22.8911 28.5913 22.7215 28.6668 22.5254C28.7423 22.3292 28.7583 22.1152 28.713 21.91C28.6677 21.7048 28.563 21.5175 28.4119 21.3714C28.2609 21.2253 28.0701 21.1268 27.8635 21.0884C27.6569 21.0499 27.4436 21.0731 27.2501 21.1551C27.0566 21.2371 26.8915 21.3742 26.7754 21.5494C26.6593 21.7246 26.5973 21.9301 26.5972 22.1402C26.5995 22.2832 26.63 22.4243 26.6869 22.5555C26.7438 22.6867 26.826 22.8054 26.9288 22.9048C27.0316 23.0042 27.1529 23.0824 27.2859 23.1349C27.4189 23.1874 27.561 23.2132 27.704 23.2107V23.2107Z" fill="#CCD2DC"/>
<path fill-rule="evenodd" clip-rule="evenodd" d="M35.8779 35.3199C35.8074 35.4697 35.7852 35.6377 35.8144 35.8007C35.8542 35.9585 35.9357 36.1026 36.0503 36.218C36.1439 36.3132 36.2207 36.4236 36.2771 36.5446C36.331 36.6676 36.3588 36.8005 36.3587 36.9348C36.3607 37.0692 36.3329 37.2025 36.2771 37.3249C36.2208 37.4486 36.1441 37.5621 36.0503 37.6605C35.9482 37.7517 35.8317 37.8253 35.7055 37.8782C35.5788 37.9293 35.4429 37.954 35.3063 37.9508C35.1668 37.954 35.028 37.9293 34.8981 37.8782C34.7747 37.8252 34.6612 37.7515 34.5624 37.6605C34.4384 37.5448 34.2844 37.4663 34.1179 37.4337C33.946 37.4057 33.7696 37.4277 33.6098 37.4972C33.456 37.5571 33.3234 37.6613 33.2288 37.7966C33.1394 37.9348 33.0891 38.0947 33.0836 38.2593V38.3772C33.0837 38.5106 33.0572 38.6426 33.0058 38.7656C32.9544 38.8886 32.8792 39.0003 32.7843 39.0939C32.5816 39.2808 32.316 39.3845 32.0404 39.3845C31.7647 39.3845 31.4991 39.2808 31.2964 39.0939C31.1065 38.9036 30.999 38.6462 30.997 38.3772V38.3319C30.9878 38.1624 30.9312 37.999 30.8337 37.8601C30.7288 37.7236 30.5872 37.6198 30.4255 37.5607C30.2727 37.5056 30.1079 37.4925 29.9483 37.5228C29.7887 37.5532 29.6402 37.6258 29.5183 37.7331C29.419 37.8302 29.3019 37.9072 29.1735 37.9599L28.983 38.0143H28.7743C28.6352 38.0124 28.4973 37.9878 28.3661 37.9418C28.2404 37.8888 28.1264 37.8118 28.0304 37.715C27.9316 37.6242 27.8541 37.5127 27.8036 37.3884L27.7492 37.2432C27.7403 37.1618 27.7403 37.0796 27.7492 36.9982C27.7491 36.864 27.7769 36.7311 27.8308 36.6081C27.8784 36.4822 27.9563 36.3701 28.0577 36.2816C28.182 36.1663 28.2649 36.0132 28.2935 35.8461C28.321 35.6809 28.3021 35.5113 28.2391 35.3562C28.1679 35.2088 28.0582 35.0834 27.9215 34.9933L27.7673 34.9116C27.6621 34.8759 27.5518 34.8575 27.4408 34.8572H27.35C27.0754 34.8571 26.8117 34.7497 26.6151 34.5578C26.5182 34.4652 26.441 34.354 26.388 34.2309C26.335 34.1077 26.3074 33.9752 26.3067 33.8411C26.2929 33.7479 26.2929 33.6531 26.3067 33.5599C26.3756 33.3468 26.5101 33.161 26.691 33.0291C26.8718 32.8971 27.0898 32.8257 27.3137 32.825H27.4679C27.6402 32.8239 27.808 32.7701 27.9488 32.6708C28.0859 32.572 28.1927 32.4369 28.2572 32.2807C28.3291 32.1279 28.3483 31.9556 28.3116 31.7908C28.2831 31.6256 28.2038 31.4734 28.0848 31.3553L27.976 31.2374C27.9276 31.1734 27.8879 31.1032 27.858 31.0287C27.8041 30.9057 27.7764 30.7729 27.7764 30.6386C27.7771 30.5046 27.8047 30.372 27.8577 30.2489C27.9107 30.1257 27.9879 30.0145 28.0848 29.9219C28.1825 29.8229 28.3 29.7456 28.4296 29.6951C28.6869 29.5983 28.9706 29.5983 29.2279 29.6951C29.3564 29.7478 29.4734 29.8249 29.5727 29.9219C29.6993 30.0391 29.8566 30.1178 30.0263 30.1487C30.1944 30.1779 30.3674 30.159 30.5253 30.0943C30.6797 30.031 30.8123 29.9237 30.9063 29.7858C30.9575 29.7117 30.9944 29.6286 31.0152 29.5409C31.0283 29.4689 31.0283 29.3951 31.0152 29.3232V29.2415C31.0218 29.0413 31.0885 28.8477 31.2066 28.6859C31.3247 28.5241 31.4888 28.4016 31.6775 28.3343C31.7991 28.2875 31.9281 28.2629 32.0585 28.2617C32.3359 28.2614 32.6026 28.3687 32.8024 28.5611C32.8973 28.6548 32.9726 28.7664 33.024 28.8894C33.0754 29.0125 33.1018 29.1445 33.1018 29.2778V29.3232C33.1073 29.4877 33.1575 29.6476 33.2469 29.7858L33.383 29.9401C33.4558 30.0021 33.5386 30.0512 33.628 30.0852C33.6763 30.1113 33.7283 30.1297 33.7822 30.1396C33.899 30.1629 34.0193 30.1629 34.136 30.1396C34.3039 30.1112 34.459 30.032 34.5806 29.9128C34.6803 29.8187 34.7974 29.7447 34.9253 29.6951C34.9937 29.6616 35.0674 29.6401 35.143 29.6316H35.3245C35.4617 29.6316 35.5975 29.6594 35.7237 29.7133C35.8527 29.7606 35.9702 29.8348 36.0684 29.931C36.165 30.0237 36.2421 30.1347 36.2952 30.2576V30.3755C36.3089 30.4657 36.3089 30.5575 36.2952 30.6477C36.2997 30.702 36.2997 30.7567 36.2952 30.811C36.288 30.8898 36.2665 30.9667 36.2317 31.0378C36.1788 31.1634 36.1017 31.2775 36.0049 31.3735C35.8859 31.4916 35.8067 31.6438 35.7781 31.809C35.7459 31.974 35.7649 32.1449 35.8325 32.2988C35.9023 32.4496 36.0122 32.5782 36.1501 32.6708C36.2959 32.757 36.4616 32.8038 36.6309 32.8069H36.7216H36.9666C37.1523 32.8494 37.3222 32.9438 37.4565 33.0791C37.5542 33.171 37.632 33.2821 37.6851 33.4054C37.7381 33.5287 37.7653 33.6615 37.7649 33.7957C37.7643 33.9298 37.7366 34.0624 37.6836 34.1855C37.6306 34.3087 37.5534 34.4198 37.4565 34.5125C37.259 34.7018 36.9951 34.8061 36.7216 34.8028H36.6672C36.4995 34.8066 36.3362 34.8569 36.1954 34.9479C36.0528 35.0352 35.9417 35.1654 35.8779 35.3199ZM33.6074 34.828C33.8078 34.507 33.9078 34.1333 33.8944 33.7551C33.8846 33.2605 33.6792 32.79 33.3232 32.4465C32.9672 32.103 32.4895 31.9147 31.9949 31.9227C31.6164 31.9229 31.2466 32.0362 30.933 32.248C30.6193 32.4599 30.3761 32.7606 30.2346 33.1116C30.093 33.4626 30.0595 33.8479 30.1384 34.2181C30.2173 34.5882 30.4049 34.9264 30.6773 35.1892C30.9497 35.452 31.2944 35.6274 31.6672 35.6929C32.0399 35.7584 32.4238 35.7112 32.7695 35.5571C33.1152 35.403 33.407 35.1491 33.6074 34.828Z" fill="url(#paint0_linear_3052_374653)"/>
<path d="M22.9222 37.0861C22.6842 37.0851 22.4561 36.9907 22.2872 36.8231L19.9283 34.4643C19.7594 34.2943 19.6646 34.0644 19.6646 33.8247C19.6646 33.585 19.7594 33.3551 19.9283 33.1851L22.2872 30.8263C22.4571 30.6574 22.687 30.5625 22.9267 30.5625C23.1664 30.5625 23.3963 30.6574 23.5663 30.8263C23.7353 30.9963 23.8301 31.2262 23.8301 31.4659C23.8301 31.7056 23.7353 31.9355 23.5663 32.1055L21.8698 33.8201L23.5845 35.5348C23.6695 35.6191 23.737 35.7195 23.783 35.83C23.8291 35.9406 23.8528 36.0592 23.8528 36.1789C23.8528 36.2987 23.8291 36.4173 23.783 36.5278C23.737 36.6384 23.6695 36.7387 23.5845 36.8231C23.4976 36.9094 23.3941 36.9771 23.2803 37.0224C23.1664 37.0676 23.0446 37.0893 22.9222 37.0861V37.0861Z" fill="#CCD2DC"/>
<path d="M41.0766 37.0861C40.8964 37.0872 40.7199 37.0346 40.5698 36.9349C40.4196 36.8353 40.3025 36.6932 40.2334 36.5268C40.1643 36.3604 40.1463 36.1772 40.1818 36.0005C40.2172 35.8238 40.3045 35.6617 40.4325 35.5348L42.1471 33.8201L40.4325 32.1055C40.2635 31.9355 40.1686 31.7056 40.1686 31.4659C40.1686 31.2262 40.2635 30.9963 40.4325 30.8263C40.6024 30.6574 40.8323 30.5625 41.072 30.5625C41.3117 30.5625 41.5416 30.6574 41.7116 30.8263L44.0704 33.1851C44.2393 33.3551 44.3342 33.585 44.3342 33.8247C44.3342 34.0644 44.2393 34.2943 44.0704 34.4643L41.7116 36.8231C41.5426 36.9907 41.3146 37.0851 41.0766 37.0861Z" fill="#CCD2DC"/>
<defs>
<linearGradient id="paint0_linear_3052_374653" x1="26.298" y1="33.8229" x2="37.7664" y2="33.8229" gradientUnits="userSpaceOnUse">
<stop stop-color="#635DFF"/>
<stop offset="1" stop-color="#3885FF"/>
</linearGradient>
</defs>
</svg>
