<svg width="36" height="16" viewBox="0 0 36 16" fill="none" xmlns="http://www.w3.org/2000/svg">
<path d="M12.5035 3.75831C13.8008 7.72581 14.2923 14.8035 18.0863 14.8035C18.3751 14.8035 18.667 14.7752 18.9599 14.7194C15.511 13.9153 15.1022 6.91465 12.9978 3.28931C12.83 3.44241 12.6651 3.59877 12.5034 3.75831" fill="url(#paint0_linear)"/>
<path d="M12.9978 3.28928C15.1023 6.91462 15.511 13.9153 18.9598 14.7194C19.2308 14.6697 19.5023 14.5944 19.7744 14.4994C16.6788 12.9828 15.8232 6.18457 13.4331 2.91187C13.2856 3.0349 13.1405 3.16077 12.9978 3.28942" fill="url(#paint1_linear)"/>
<path d="M16.0299 1.1332C15.7417 1.1332 15.4492 1.16151 15.1558 1.21729C14.3881 1.36197 13.6082 1.69252 12.8221 2.19267C13.0368 2.40459 13.2411 2.64709 13.4334 2.91182C14.2329 2.2483 15.0272 1.75806 15.8187 1.46333C16.1076 1.35525 16.4053 1.2725 16.7085 1.21601C16.4866 1.1602 16.2587 1.13238 16.0299 1.1332Z" fill="#14559A"/>
<path d="M22.1909 13.1012C22.5207 12.8377 22.8383 12.5593 23.1428 12.2669C21.8246 8.31782 21.3527 1.13892 17.5322 1.13892C17.2589 1.13892 16.9833 1.1644 16.7083 1.21536C20.1883 2.08089 20.6341 9.65236 22.1911 13.1012" fill="url(#paint2_linear)"/>
<path d="M16.7084 1.21563C16.4865 1.15989 16.2586 1.13212 16.0298 1.13295L17.5323 1.13847C17.2591 1.13847 16.9834 1.16396 16.7084 1.21549" fill="#3092C4"/>
<path d="M22.1243 13.9403C21.9749 13.7979 21.8331 13.6416 21.6935 13.4749C21.0508 13.9298 20.4106 14.275 19.7743 14.4995C20.0014 14.6111 20.2419 14.693 20.4899 14.7433C20.6905 14.7839 20.8948 14.8041 21.0995 14.8036C21.8134 14.8036 22.3778 14.7191 22.8584 14.4886C22.5937 14.3456 22.3512 14.1602 22.1243 13.9403Z" fill="#1969BC"/>
<path d="M15.8185 1.46364C18.9355 3.0939 19.2064 10.4768 21.6936 13.4746C21.8628 13.355 22.0285 13.2305 22.1905 13.1011C20.6335 9.65233 20.1883 2.08029 16.7089 1.21533C16.4055 1.27244 16.1076 1.35551 15.8185 1.46364Z" fill="url(#paint3_linear)"/>
<path d="M13.4331 2.91169C15.823 6.18439 16.6788 12.9825 19.7744 14.4992C20.4107 14.2747 21.051 13.9296 21.6936 13.4746C19.2064 10.4768 18.9355 3.09389 15.8185 1.46362C15.0271 1.7578 14.2327 2.24804 13.4331 2.91155" fill="url(#paint4_linear)"/>
<path d="M10.9743 3.66277C10.5997 4.50975 10.217 5.62302 9.75439 7.07619C10.6744 5.78002 11.5915 4.66307 12.5034 3.75847C12.3779 3.37228 12.243 3.01624 12.0976 2.69885C11.7061 2.99973 11.3311 3.32155 10.9744 3.66291" fill="url(#paint5_linear)"/>
<path d="M12.4298 2.45435C12.3179 2.534 12.2072 2.61546 12.098 2.69869C12.2433 3.01593 12.3776 3.37197 12.5033 3.75816C12.6653 3.59892 12.8301 3.44256 12.9976 3.28915C12.8211 2.98578 12.6335 2.70562 12.4298 2.45435Z" fill="#2B74B1"/>
<path d="M12.822 2.19252C12.6893 2.27686 12.5585 2.36408 12.4296 2.45414C12.6334 2.70541 12.8209 2.98557 12.9981 3.28951C13.1404 3.16038 13.2856 3.03436 13.4334 2.91153C13.2413 2.64695 13.037 2.40431 12.8221 2.19238" fill="#125A9E"/>
<path d="M34.0831 0.830903C32.3202 7.62957 28.6381 13.0902 25.551 14.4669H25.5453C25.4891 14.4924 25.4335 14.5156 25.3786 14.5381C25.3709 14.5428 25.364 14.5433 25.3582 14.546C25.342 14.5525 25.327 14.5576 25.3108 14.5641C25.3031 14.5687 25.2963 14.5702 25.2894 14.5729C25.2633 14.5823 25.2378 14.59 25.2124 14.6002C25.2013 14.6049 25.191 14.6077 25.1805 14.6114C25.168 14.6162 25.1552 14.6204 25.1423 14.6239C25.1307 14.6284 25.1185 14.6318 25.1052 14.6369C25.0942 14.6414 25.0825 14.6434 25.0722 14.6479C25.0496 14.6544 25.0289 14.66 25.0062 14.6678C24.9969 14.6678 24.9883 14.6729 24.9785 14.6754C24.9645 14.6799 24.9488 14.6832 24.9338 14.6874C24.9234 14.692 24.9148 14.6935 24.9038 14.6958C24.8882 14.7003 24.8708 14.7046 24.8551 14.7082L24.796 14.7213C24.9374 14.7734 25.087 14.7997 25.2377 14.7988C28.165 14.7988 31.1163 9.55301 35.9999 0.829346H34.0824L34.0831 0.830903Z" fill="url(#paint6_linear)"/>
<path d="M9.11877 1.40887C9.12061 1.40887 9.12302 1.40434 9.12401 1.40434C9.12642 1.40434 9.12996 1.40434 9.13109 1.39981H9.13477C9.15091 1.39415 9.16591 1.38778 9.18219 1.38169C9.18644 1.38169 9.18856 1.38169 9.19154 1.37716C9.19564 1.37716 9.19961 1.37249 9.20371 1.37192C9.22098 1.3664 9.23839 1.35989 9.25467 1.35394H9.25736C9.29615 1.34233 9.33211 1.32789 9.36963 1.31444C9.375 1.31444 9.3801 1.30991 9.38647 1.30991C9.40204 1.30482 9.41832 1.2993 9.4346 1.29562C9.44211 1.29094 9.44961 1.29094 9.45655 1.28854C9.47325 1.28358 9.48953 1.27792 9.5051 1.27424C9.51218 1.27424 9.51841 1.26957 9.52365 1.26914C9.57744 1.25428 9.63081 1.24041 9.68461 1.22752C9.69211 1.22752 9.69848 1.22285 9.70655 1.22243C9.72212 1.2179 9.7367 1.21535 9.75355 1.21308C9.76049 1.20855 9.76856 1.20855 9.77662 1.20615C9.7922 1.20162 9.80734 1.20105 9.82419 1.19737H9.83509C9.86765 1.19072 9.90064 1.18534 9.93305 1.17925H9.95273C9.9683 1.17472 9.98218 1.17415 9.99789 1.17132C10.0064 1.17132 10.0152 1.16679 10.0234 1.16679C10.0378 1.16679 10.0523 1.16212 10.0667 1.16028C10.0743 1.16028 10.0817 1.16028 10.0905 1.15561C10.1246 1.15108 10.1598 1.14924 10.1958 1.14641C10.0923 1.136 9.98837 1.13057 9.88436 1.13013C6.58787 1.13013 2.0459 7.24673 0 15.1679H0.394259C1.049 14.0002 1.6372 12.8956 2.17515 11.8586C3.60793 6.24799 6.52643 2.42177 9.11891 1.40802" fill="url(#paint7_linear)"/>
<path d="M10.9744 3.66269C11.3311 3.32133 11.7059 2.99951 12.0974 2.69864C12.0178 2.52154 11.9285 2.34895 11.83 2.18164C11.5285 2.54759 11.2528 3.03046 10.9744 3.66269Z" fill="#0D82CA"/>
<path d="M11.2453 1.45546C11.4604 1.6361 11.6534 1.8844 11.8299 2.18211C11.8856 2.11374 11.9418 2.0506 12.0001 1.99157C11.7552 1.76294 11.4907 1.57536 11.2035 1.43408C11.2151 1.44045 11.2267 1.44569 11.2387 1.45079C11.2387 1.45079 11.2433 1.45532 11.2453 1.45532" fill="#0D82CA"/>
<path d="M2.17493 11.8594C5.18092 6.06703 6.60506 2.40106 9.11884 1.40869C6.52692 2.42315 3.60785 6.24937 2.17507 11.8594" fill="url(#paint8_linear)"/>
<path d="M11.9999 1.99121C11.9415 2.05081 11.886 2.11338 11.8298 2.18176C11.9284 2.34908 12.0178 2.52161 12.0978 2.69861C12.207 2.61543 12.3177 2.53402 12.4296 2.45441C12.2974 2.29016 12.1538 2.13539 11.9999 1.99121Z" fill="#127BCA"/>
<path d="M3.53947 15.1424C3.52092 15.1471 3.50238 15.1471 3.48496 15.1489H3.47463C3.45892 15.1489 3.44264 15.1536 3.4282 15.1536H3.42069C3.38304 15.1581 3.34595 15.1581 3.31013 15.1609H3.29852C6.3409 15.0759 7.73149 13.5526 8.42176 11.3434C8.94626 9.6685 9.3769 8.25752 9.75446 7.07361C8.48009 8.86724 7.20006 11.0053 5.91309 13.4004C5.29247 14.5548 4.34879 15.0369 3.53933 15.1403" fill="url(#paint9_linear)"/>
<path d="M3.53957 15.1412C4.3489 15.0381 5.29257 14.5565 5.91319 13.4014C7.20016 11.0069 8.4809 8.86832 9.75385 7.07469C10.2171 5.62082 10.5993 4.50812 10.9744 3.66113C8.43687 6.07652 5.88941 10.0927 3.53943 15.1401" fill="url(#paint10_linear)"/>
<path d="M2.17493 11.8596C1.63698 12.8964 1.04878 14.0011 0.394043 15.1688H1.54086C1.68569 14.0542 1.89743 12.9494 2.17493 11.8602" fill="#05A1E6"/>
<path d="M10.0904 1.15857C10.081 1.15857 10.0741 1.1631 10.066 1.1631C10.0521 1.16777 10.0377 1.16777 10.0231 1.16919C10.0146 1.16919 10.0064 1.16919 9.99765 1.17386C9.98207 1.17839 9.96763 1.17881 9.95249 1.18179C9.94555 1.18179 9.93861 1.18179 9.93281 1.18632C9.89983 1.19184 9.86741 1.19792 9.83513 1.20344H9.82409C9.80724 1.20812 9.79209 1.21052 9.77652 1.21279C9.76845 1.21732 9.76038 1.21732 9.75274 1.21916C9.73717 1.22383 9.72159 1.22567 9.70645 1.2285C9.69838 1.23303 9.69201 1.23303 9.6845 1.23346C9.63071 1.24648 9.57734 1.26035 9.52354 1.27522C9.51788 1.27522 9.51194 1.27975 9.505 1.28074C9.48886 1.28527 9.47315 1.28994 9.4563 1.29504C9.44936 1.29971 9.4413 1.29971 9.43436 1.30155C9.41823 1.30601 9.40218 1.31078 9.38623 1.31585C9.38 1.31585 9.37476 1.32038 9.36896 1.32038C9.33187 1.33425 9.29534 1.34827 9.25712 1.35973C9.24098 1.36483 9.22357 1.37134 9.20616 1.37743C9.19922 1.38196 9.19299 1.38309 9.18492 1.38621C9.16864 1.3913 9.15236 1.39781 9.13735 1.40376C9.13169 1.40843 9.12575 1.40886 9.12178 1.41126C6.60801 2.40363 5.18373 6.06946 2.17787 11.8619C1.90013 12.951 1.68843 14.056 1.54395 15.1707H1.7049C2.1582 15.1707 2.28617 15.166 2.8077 15.166H3.31323C3.34904 15.1615 3.38613 15.1615 3.42365 15.1585H3.43072C3.4463 15.1585 3.46187 15.154 3.47702 15.154H3.48806C3.50476 15.154 3.52387 15.1494 3.54242 15.1475C5.8924 10.1001 8.43972 6.0839 10.9774 3.66852C11.2563 3.03643 11.5314 2.55355 11.8325 2.18817C11.6564 1.8906 11.4636 1.64173 11.2482 1.46109C11.2482 1.46109 11.2424 1.46109 11.242 1.45642C11.2297 1.45147 11.2182 1.44538 11.206 1.43943C11.1939 1.43278 11.1834 1.42768 11.1707 1.42131C11.1588 1.41633 11.1472 1.41075 11.136 1.40461C11.121 1.39994 11.1088 1.39342 11.0955 1.38748C11.0844 1.38281 11.0747 1.37814 11.0636 1.37361C11.0412 1.3649 11.019 1.3556 10.9971 1.34572C10.9872 1.34119 10.978 1.33864 10.9688 1.3351C10.9519 1.32897 10.9353 1.32236 10.9188 1.31528C10.9107 1.31061 10.9015 1.30962 10.8922 1.30636C10.8686 1.29843 10.8453 1.29008 10.8234 1.28272H10.8176C10.791 1.27394 10.7649 1.26743 10.7377 1.26007C10.7314 1.2554 10.7261 1.2554 10.7198 1.25441C10.696 1.24804 10.6752 1.24167 10.6527 1.23558C10.647 1.23558 10.6416 1.23091 10.6371 1.23091C10.5817 1.21672 10.5259 1.20454 10.4696 1.19438C10.464 1.19438 10.4582 1.18971 10.4524 1.18971C10.4284 1.18495 10.4043 1.18108 10.38 1.1781C10.3741 1.17357 10.3707 1.17357 10.3656 1.17357C10.3371 1.16921 10.3085 1.16548 10.2798 1.16239H10.2648C10.2416 1.15786 10.2202 1.15744 10.1988 1.15503C10.1623 1.15956 10.1276 1.16154 10.0933 1.1648" fill="url(#paint11_linear)"/>
<path d="M27.1971 4.59464C26.6188 6.4473 26.1504 7.97564 25.7428 9.23316C27.3297 7.04938 28.8929 4.30217 30.3815 1.13196C28.6452 1.67727 27.7188 2.92559 27.1971 4.59464Z" fill="url(#paint12_linear)"/>
<path d="M25.7931 14.351C25.7121 14.3923 25.631 14.4315 25.551 14.4668C28.6381 13.0901 32.3202 7.62947 34.0831 0.830811H33.7258C29.6757 8.06592 28.373 12.9094 25.7931 14.351Z" fill="url(#paint13_linear)"/>
<path d="M23.7774 13.7433C24.4489 12.9235 24.9961 11.5299 25.743 9.23315C24.8814 10.4166 24.0142 11.4338 23.1463 12.2635C23.1463 12.268 23.1463 12.268 23.1417 12.2709C23.331 12.8383 23.5388 13.339 23.7757 13.7431" fill="#079AE1"/>
<path d="M23.7774 13.7433C23.5488 14.0222 23.3067 14.2348 23.0375 14.3922C22.9784 14.4265 22.9188 14.4588 22.8581 14.4885C23.1502 14.6467 23.4699 14.7474 23.7999 14.7853C23.8509 14.7904 23.9013 14.7951 23.954 14.7988H23.9633C23.9869 14.7988 24.0118 14.7988 24.0373 14.8033H24.2886C24.2978 14.8033 24.3074 14.8033 24.3168 14.7988C24.3348 14.7988 24.3537 14.7988 24.3723 14.7941H24.3997C24.4187 14.7941 24.4395 14.7896 24.4599 14.7876H24.4644C24.4705 14.7876 24.477 14.7831 24.483 14.7831C24.5042 14.7784 24.5266 14.7766 24.5472 14.7733H24.5664C24.5899 14.7688 24.6144 14.7658 24.6386 14.7613H24.6503C24.6989 14.7519 24.7463 14.7429 24.7944 14.7307C24.3961 14.5849 24.0625 14.2409 23.7754 13.7511" fill="#1969BC"/>
<path d="M18.0862 14.8033C18.3751 14.8033 18.6669 14.775 18.9599 14.7188C19.2309 14.6697 19.5024 14.5942 19.7745 14.4994C20.0014 14.6108 20.2417 14.6928 20.4894 14.7432C20.6903 14.7838 20.8947 14.8039 21.0997 14.8033H18.0862Z" fill="#1E5CB3"/>
<path d="M21.0997 14.8033C21.813 14.8033 22.378 14.7187 22.8579 14.4883C23.1501 14.6466 23.4698 14.7474 23.7999 14.7854C23.8509 14.7904 23.9013 14.7951 23.9539 14.7987H23.9633C23.9869 14.7987 24.0118 14.7987 24.0373 14.8034H24.124H21.0977H21.0997V14.8033Z" fill="#1E5CB3"/>
<path d="M24.1257 14.8034H24.2907C24.3005 14.8034 24.3097 14.8034 24.319 14.7989C24.337 14.7989 24.356 14.7989 24.3753 14.7942H24.4026C24.4215 14.7942 24.4424 14.7897 24.4622 14.7878H24.4673C24.4734 14.7878 24.4793 14.7833 24.4854 14.7833C24.5066 14.7786 24.5288 14.7768 24.5495 14.7734C24.5566 14.7734 24.5621 14.7734 24.5695 14.7689C24.5931 14.7643 24.6176 14.7619 24.642 14.7574H24.6536C24.7021 14.748 24.7495 14.7388 24.7975 14.7268C24.9389 14.7789 25.0885 14.8052 25.2392 14.8044L24.1265 14.8089L24.1257 14.8034Z" fill="#1D60B5"/>
<path d="M23.1436 12.2712V12.2665C22.8392 12.5589 22.5216 12.8372 22.1918 13.1007C22.0296 13.2299 21.8638 13.3544 21.6945 13.4742C21.834 13.6409 21.9758 13.7972 22.1253 13.9398C22.3522 14.1596 22.5947 14.3449 22.8593 14.4879C22.9196 14.4582 22.9796 14.4259 23.0383 14.3918C23.3079 14.2344 23.55 14.0219 23.7786 13.7429C23.5419 13.3387 23.3341 12.838 23.1447 12.2706" fill="#175FAB"/>
<path d="M32.5947 0.830811H30.7967C30.6996 0.835482 30.6051 0.838738 30.512 0.844684C30.468 0.939108 30.4228 1.03353 30.3793 1.12852C28.8909 4.29873 27.3278 7.04594 25.7408 9.22972C24.9945 11.5263 24.4469 12.9199 23.7753 13.7397C24.0624 14.2295 24.3965 14.5739 24.7936 14.7199C24.8052 14.7152 24.8146 14.7152 24.8249 14.7128H24.8314C24.8383 14.7128 24.8458 14.7083 24.8533 14.7083C24.8695 14.7036 24.8869 14.7008 24.9032 14.6958C24.9135 14.6912 24.9221 14.6907 24.9326 14.6873C24.9478 14.6828 24.9633 14.6796 24.9772 14.6759C24.9866 14.6712 24.9958 14.6698 25.005 14.6679C25.0282 14.6604 25.049 14.6549 25.0711 14.648C25.0814 14.6435 25.0925 14.6395 25.1041 14.6368C25.1168 14.6323 25.1295 14.629 25.1411 14.6235C25.1545 14.6188 25.1678 14.6164 25.1794 14.6115C25.1897 14.6068 25.2006 14.604 25.2105 14.5999C25.2366 14.5905 25.262 14.5827 25.2881 14.5725C25.2952 14.5725 25.3021 14.566 25.3096 14.5646C25.3252 14.5581 25.3415 14.553 25.357 14.5461C25.3627 14.5414 25.3698 14.541 25.3773 14.5386C25.4318 14.5159 25.4878 14.4927 25.544 14.4674H25.5498C25.6314 14.431 25.712 14.3924 25.7914 14.3515C28.3717 12.91 29.6745 8.06649 33.7247 0.831377H32.5934L32.5948 0.830811H32.5947Z" fill="url(#paint14_linear)"/>
<path d="M10.1958 1.14884C10.2022 1.14884 10.208 1.14884 10.2142 1.15337C10.2299 1.15337 10.2456 1.15337 10.2612 1.15847H10.2768C10.3052 1.163 10.3335 1.16555 10.3626 1.16965C10.3678 1.16965 10.3725 1.16965 10.377 1.17418C10.4008 1.17871 10.4251 1.18268 10.4493 1.18621C10.4546 1.18621 10.4615 1.19089 10.4673 1.19089C10.523 1.20193 10.5797 1.21354 10.6341 1.22784C10.6392 1.22784 10.6446 1.23251 10.6491 1.23251C10.6723 1.23803 10.6931 1.24496 10.7163 1.25148C10.7234 1.25148 10.7284 1.25601 10.7347 1.25714C10.7621 1.26408 10.7875 1.27101 10.814 1.27979C10.8153 1.27979 10.8168 1.27979 10.82 1.28432C10.8426 1.29126 10.8657 1.30003 10.8893 1.30796C10.8988 1.31249 10.9074 1.31447 10.9161 1.31674C10.9324 1.32382 10.9503 1.33061 10.9659 1.33712C10.9751 1.33712 10.9843 1.34364 10.9942 1.34703C11.0156 1.35666 11.0381 1.36544 11.0602 1.37464C11.0718 1.37931 11.0816 1.38455 11.0928 1.38865C11.1055 1.39517 11.1187 1.40111 11.1325 1.40564C11.1441 1.4113 11.1569 1.41725 11.1679 1.42235C11.1801 1.429 11.1916 1.43395 11.2033 1.44047C11.4904 1.58175 11.755 1.76989 11.9999 1.99809C12.0876 1.90575 12.182 1.82001 12.2823 1.74157C11.7468 1.36161 11.1402 1.14502 10.4401 1.14502C10.359 1.14502 10.2781 1.14969 10.1958 1.15578" fill="#7DCBEC"/>
<path d="M11.9999 1.99128C12.1537 2.13545 12.2973 2.29023 12.4295 2.45448C12.5583 2.36412 12.6891 2.27679 12.8219 2.19258C12.6553 2.02479 12.4746 1.87157 12.2819 1.73462C12.1816 1.81291 12.0873 1.89865 11.9999 1.99114" fill="#5EC5ED"/>
<path d="M10.1956 1.14878C10.2777 1.14185 10.3588 1.13887 10.4399 1.13887C11.1398 1.13887 11.7465 1.35547 12.2821 1.73486C12.8472 1.28893 13.5303 1.13321 14.4792 1.13321H9.88397C9.99015 1.13321 10.0936 1.13958 10.1956 1.14878Z" fill="url(#paint15_linear)"/>
<path d="M14.4793 1.13315C13.5304 1.13315 12.8474 1.28888 12.2822 1.73481C12.4747 1.87186 12.6553 2.02502 12.8219 2.19263C13.6086 1.69248 14.3879 1.36122 15.1563 1.21654C15.4442 1.16178 15.7366 1.13386 16.0297 1.13315H14.4793Z" fill="url(#paint16_linear)"/>
<path d="M25.7428 9.23418C26.1509 7.97566 26.6182 6.44775 27.1977 4.59452C27.7201 2.92476 28.6445 1.67658 30.3808 1.13184C30.4266 1.03855 30.47 0.942427 30.5145 0.848145C27.6841 1.01774 26.3612 2.4576 25.6954 4.58985C24.5312 8.31245 23.8259 10.7256 23.1468 12.2632C24.0142 11.4342 24.8814 10.4164 25.7428 9.23418Z" fill="url(#paint17_linear)"/>
<defs>
<linearGradient id="paint0_linear" x1="15.7314" y1="1.0422" x2="15.7314" y2="18.2146" gradientUnits="userSpaceOnUse">
<stop stop-color="#0994DC"/>
<stop offset="0.35001" stop-color="#66CEF5"/>
<stop offset="0.84616" stop-color="#127BCA"/>
<stop offset="1" stop-color="#127BCA"/>
</linearGradient>
<linearGradient id="paint1_linear" x1="16.3862" y1="0.60751" x2="16.3862" y2="18.2172" gradientUnits="userSpaceOnUse">
<stop stop-color="#0E76BC"/>
<stop offset="0.36" stop-color="#36AEE8"/>
<stop offset="0.84616" stop-color="#00ADEF"/>
<stop offset="1" stop-color="#00ADEF"/>
</linearGradient>
<linearGradient id="paint2_linear" x1="19.9255" y1="14.4077" x2="19.9255" y2="0.395582" gradientUnits="userSpaceOnUse">
<stop stop-color="#1C63B7"/>
<stop offset="0.5" stop-color="#33BDF2"/>
<stop offset="1" stop-color="#33BDF2" stop-opacity="0.42"/>
</linearGradient>
<linearGradient id="paint3_linear" x1="19.0045" y1="-1.17706" x2="19.0045" y2="17.1066" gradientUnits="userSpaceOnUse">
<stop stop-color="#166AB8"/>
<stop offset="0.39999" stop-color="#36AEE8"/>
<stop offset="0.84616" stop-color="#0798DD"/>
<stop offset="1" stop-color="#0798DD"/>
</linearGradient>
<linearGradient id="paint4_linear" x1="17.5633" y1="-1.08106" x2="17.5633" y2="18.3613" gradientUnits="userSpaceOnUse">
<stop stop-color="#124379"/>
<stop offset="0.39" stop-color="#1487CB"/>
<stop offset="0.78023" stop-color="#165197"/>
<stop offset="1" stop-color="#165197"/>
</linearGradient>
<linearGradient id="paint5_linear" x1="9.75439" y1="4.88756" x2="12.5034" y2="4.88756" gradientUnits="userSpaceOnUse">
<stop stop-color="#33BDF2" stop-opacity="0.698"/>
<stop offset="1" stop-color="#1DACD8"/>
</linearGradient>
<linearGradient id="paint6_linear" x1="30.3991" y1="14.0565" x2="30.3991" y2="0.406768" gradientUnits="userSpaceOnUse">
<stop stop-color="#136AB4"/>
<stop offset="0.6" stop-color="#59CAF5" stop-opacity="0.549"/>
<stop offset="1" stop-color="#59CAF5" stop-opacity="0.235"/>
</linearGradient>
<linearGradient id="paint7_linear" x1="-0.000101958" y1="8.14899" x2="10.1957" y2="8.14899" gradientUnits="userSpaceOnUse">
<stop stop-color="#05A1E6" stop-opacity="0.247"/>
<stop offset="1" stop-color="#05A1E6"/>
</linearGradient>
<linearGradient id="paint8_linear" x1="5.64674" y1="14.4004" x2="5.64674" y2="0.424125" gradientUnits="userSpaceOnUse">
<stop stop-color="#318ED5"/>
<stop offset="1" stop-color="#38A7E4"/>
</linearGradient>
<linearGradient id="paint9_linear" x1="6.52642" y1="14.4493" x2="6.52642" y2="0.863752" gradientUnits="userSpaceOnUse">
<stop stop-color="#05A1E6"/>
<stop offset="1" stop-color="#05A1E6" stop-opacity="0.549"/>
</linearGradient>
<linearGradient id="paint10_linear" x1="7.25693" y1="15.1424" x2="7.25693" y2="3.66228" gradientUnits="userSpaceOnUse">
<stop stop-color="#1959A6"/>
<stop offset="0.5" stop-color="#05A1E6"/>
<stop offset="0.91759" stop-color="#7EC5EA"/>
<stop offset="1" stop-color="#7EC5EA"/>
</linearGradient>
<linearGradient id="paint11_linear" x1="7.69689" y1="14.4093" x2="3.80545" y2="2.51678" gradientUnits="userSpaceOnUse">
<stop stop-color="#165096"/>
<stop offset="1" stop-color="#0D82CA"/>
</linearGradient>
<linearGradient id="paint12_linear" x1="28.0619" y1="7.36972" x2="28.0619" y2="0.8647" gradientUnits="userSpaceOnUse">
<stop stop-color="#05A1E6"/>
<stop offset="0.87363" stop-color="#0495D6"/>
<stop offset="1" stop-color="#0495D6"/>
</linearGradient>
<linearGradient id="paint13_linear" x1="31.1193" y1="0.263418" x2="25.0568" y2="13.7244" gradientUnits="userSpaceOnUse">
<stop stop-color="#38A7E4" stop-opacity="0.329"/>
<stop offset="0.96153" stop-color="#0E88D3"/>
<stop offset="1" stop-color="#0E88D3"/>
</linearGradient>
<linearGradient id="paint14_linear" x1="28.7517" y1="0.789699" x2="28.7517" y2="14.9813" gradientUnits="userSpaceOnUse">
<stop stop-color="#168CD4"/>
<stop offset="0.5" stop-color="#1C87CC"/>
<stop offset="1" stop-color="#154B8D"/>
</linearGradient>
<linearGradient id="paint15_linear" x1="10.6502" y1="0.498078" x2="10.7117" y2="1.98675" gradientUnits="userSpaceOnUse">
<stop stop-color="#97D6EE"/>
<stop offset="0.70329" stop-color="#55C1EA"/>
<stop offset="1" stop-color="#55C1EA"/>
</linearGradient>
<linearGradient id="paint16_linear" x1="12.5404" y1="2.12588" x2="12.8184" y2="0.549289" gradientUnits="userSpaceOnUse">
<stop stop-color="#7ACCEC"/>
<stop offset="1" stop-color="#3FB7ED"/>
</linearGradient>
<linearGradient id="paint17_linear" x1="26.8304" y1="1.57449" x2="26.8304" y2="15.455" gradientUnits="userSpaceOnUse">
<stop stop-color="#1DA7E7"/>
<stop offset="1" stop-color="#37ABE7" stop-opacity="0"/>
</linearGradient>
</defs>
</svg>
