<svg width="1em" height="1em" viewBox="0 0 48 48" fill="none" xmlns="http://www.w3.org/2000/svg" class="sc-cTEyPb"><path fill-rule="evenodd" clip-rule="evenodd" d="M39.276 8.853l-13.991-4.66A3.719 3.719 0 0024.076 4a3.743 3.743 0 00-1.21.193l-13.99 4.66A4.206 4.206 0 006 12.843V27.61l.019.055C6.294 31.627 16.587 41.357 24.003 44h.146c7.417-2.643 17.712-12.373 17.985-16.335l.017-.055V12.844a4.204 4.204 0 00-2.875-3.99z" fill="var(--identicons-color-light, #C4C4C4)"></path><path fill-rule="evenodd" clip-rule="evenodd" d="M33.561 20.423L22.107 31.877l-3.025-3.025 11.454-11.454a2.137 2.137 0 013.025 0c.836.836.836 2.19 0 3.025z" fill="var(--identicons-color-dark, #65676E)"></path><path fill-rule="evenodd" clip-rule="evenodd" d="M15.414 25.167l6.702 6.703 2.962-2.962-6.703-6.702a2.094 2.094 0 00-2.961 2.961z" fill="var(--identicons-color-dark, #65676E)"></path></svg>