<svg width="1em" height="1em" viewBox="0 0 48 48" fill="none" xmlns="http://www.w3.org/2000/svg" class="sc-bJqgKO"><path d="M5 10.8A3.8 3.8 0 018.8 7h17.733a3.8 3.8 0 013.8 3.8v29.978H8.8a3.8 3.8 0 01-3.8-3.8V10.8z" fill="var(--identicons-color-light, #C4C4C4)"></path><path d="M30.333 15.444H39.2a3.8 3.8 0 013.8 3.8v17.734a3.8 3.8 0 01-3.8 3.8h-8.867V15.444z" fill="var(--identicons-color-dark, #65676E)"></path><rect x="11.333" y="13.333" width="4.222" height="4.222" rx="1" fill="var(--identicons-color-dark, #65676E)"></rect><rect x="11.333" y="21.778" width="4.222" height="4.222" rx="1" fill="var(--identicons-color-dark, #65676E)"></rect><rect x="11.333" y="30.222" width="4.222" height="4.222" rx="1" fill="var(--identicons-color-dark, #65676E)"></rect><rect x="19.778" y="13.333" width="4.222" height="4.222" rx="1" fill="var(--identicons-color-dark, #65676E)"></rect><rect x="19.778" y="21.778" width="4.222" height="4.222" rx="1" fill="var(--identicons-color-dark, #65676E)"></rect><rect x="34.556" y="21.778" width="4.222" height="4.222" rx="1" fill="var(--identicons-color-light, #C4C4C4)"></rect><rect x="34.556" y="30.222" width="4.222" height="4.222" rx="1" fill="var(--identicons-color-light, #C4C4C4)"></rect><rect x="19.778" y="30.222" width="4.222" height="4.222" rx="1" fill="var(--identicons-color-dark, #65676E)"></rect></svg>