<svg width="1em" height="1em" viewBox="0 0 251 250" fill="none" xmlns="http://www.w3.org/2000/svg" font-size="12.5em" class="sc-dFJIMo"><path d="M181.972 194.997l5.356-7.817c2.313-.062 5.397-.403 8.473-1.378h-.001l-13.828 9.195zm0 0c.665.168 1.789.319 3.245.38 1.662.07 3.74.022 6.029-.247 4.579-.538 9.984-1.956 14.575-5.063l.009-.006h0c2.42-1.453 7.891-5.921 11.204-12.604 3.307-6.67 4.469-15.551-1.717-25.873l.003-.003c-5.41-8.608-15.236-12.34-24.22-9.702-7.155 2.102-10.679 7.324-12.095 13.281l2.967 39.837zm23.027-15.037c2.064-2.188 4.522-5.482 5.65-9.593 1.13-4.119.921-9.045-2.331-14.476h0l-.003-.004c-3.357-5.282-9.329-7.757-14.899-6.121v.001a8.996 8.996 0 00-4.72 3.338c-1.451 1.969-2.517 4.954-2.454 9.457l-.573.386c-.201-.31-.408-.622-.63-.919 0 0 0 0 0 0l19.96 17.931z" fill="url(#experienced-user_svg_paint0_linear_1503_210)" stroke="url(#experienced-user_svgpaint1_linear_1503_210)" stroke-width="0.4"></path><path d="M177.525 220.259c-8.443 6.133-18.83 7.872-30.059 7.872-11.23 0-21.617-1.728-30.06-7.872" fill="url(#experienced-user_svgpaint2_linear_1503_210)"></path><path d="M177.525 220.259c-8.443 6.133-18.83 7.872-30.059 7.872-11.23 0-21.617-1.728-30.06-7.872" stroke="#000" stroke-width="0.4" stroke-miterlimit="10"></path><path d="M117.417 220.26c7.256-8.476 18.031-13.843 30.059-13.843 12.029 0 22.804 5.367 30.06 13.843l-33.547 8.098-26.561-8.098h-.011z" fill="url(#experienced-user_svgpaint3_linear_1503_210)" stroke="#000" stroke-width="0.4" stroke-miterlimit="10"></path><path d="M147.466 231.672c-13.907 0-24.121-2.721-32.144-8.54a3.557 3.557 0 014.179-5.755c6.748 4.902 15.634 7.191 27.965 7.191 12.33 0 21.227-2.279 27.965-7.191a3.556 3.556 0 114.178 5.755c-8.022 5.83-18.236 8.54-32.143 8.54z" fill="url(#experienced-user_svgpaint4_linear_1503_210)" stroke="#000" stroke-width="0.4" stroke-miterlimit="10"></path><path d="M186.53 162.818a27.08 27.08 0 01-2.343 29.196c-6.791 8.94-18.485 18.172-37.844 18.172h-.486c-17.654-.292-27.663-3.887-62.452-27.242-21.735-14.587-34.4-21.465-41.137-24.65-4.73-2.235-11.877-4.751-11.77-6.651.076-1.296 1.415-3.218 11.305-2.905 15.926.173 29.553 6.274 48.653 12.547 5.312 2.019 9.826 2.008 13.713 1.015l.226-.065c5.55-1.404 6.975-3.909 13.421-9.48a55.425 55.425 0 0110.852-7.353c3.347-1.728 7.461-3.164 11.153-3.995a35.14 35.14 0 016.533-.615c12.676 0 24.196 4.891 32.802 12.891" fill="url(#experienced-user_svgpaint5_linear_1503_210)"></path><path d="M186.53 162.818a27.08 27.08 0 01-2.343 29.196c-6.791 8.94-18.485 18.172-37.844 18.172h-.486c-17.654-.292-27.663-3.887-62.452-27.242-21.735-14.587-34.4-21.465-41.137-24.65-4.73-2.235-11.877-4.751-11.77-6.651.076-1.296 1.415-3.218 11.305-2.905 15.926.173 29.553 6.274 48.653 12.547 5.312 2.019 9.826 2.008 13.713 1.015l.226-.065c5.55-1.404 6.975-3.909 13.421-9.48a55.425 55.425 0 0110.852-7.353c3.347-1.728 7.461-3.164 11.153-3.995a35.14 35.14 0 016.533-.615c12.676 0 24.196 4.891 32.802 12.891" stroke="#000" stroke-width="0.4" stroke-miterlimit="10"></path><path d="M174.75 150.055c-6.273 8.941-16.66 12.525-28.407 12.525-10.517 0-19.932-2.418-26.292-9.804l-.961-1.123" stroke="#000" stroke-width="0.4" stroke-linecap="round" stroke-linejoin="round"></path><path d="M172.807 148.986c-5.842 8.314-15.494 11.651-26.421 11.651-9.772 0-18.539-2.257-24.456-9.124l-.896-1.047" stroke="#000" stroke-width="0.4" stroke-linecap="round" stroke-linejoin="round"></path><path d="M146.775 135.091h3.822s-1.35 3.314 1.565 6.046c-1.544.572-3.39.799-5.139.799s-3.617-.248-5.366-.831h.01c3.034-2.754 1.512-6.014 1.512-6.014h3.822" fill="#000"></path><path d="M146.775 135.091h3.822s-1.35 3.314 1.565 6.046c-1.544.572-3.39.799-5.139.799s-3.617-.248-5.366-.831h.01c3.034-2.754 1.512-6.014 1.512-6.014h3.822" stroke="#000" stroke-width="0.4" stroke-miterlimit="10"></path><path d="M146.893 137.336a7.235 7.235 0 10.001-14.469 7.235 7.235 0 00-.001 14.469z" fill="url(#experienced-user_svgpaint6_linear_1503_210)" stroke="#000" stroke-width="0.4" stroke-miterlimit="10"></path><path d="M178.443 168.055c-1.393-9.912.248-22.74 12.611-26.367 9.081-2.667 18.993 1.112 24.456 9.804 12.449 20.763-4.675 35.814-9.556 38.751-9.253 6.262-21.756 5.701-24.283 4.88" stroke="#000" stroke-width="0.4" stroke-linecap="round" stroke-linejoin="round"></path><path d="M187.232 186.993c2.311-.054 5.42-.389 8.519-1.371 1.857-.583 6.241-2.7 9.113-5.788 4.103-4.351 9.739-13.053 3.293-23.829-3.315-5.215-9.199-7.645-14.673-6.036-2.786.821-7.191 3.639-7.029 12.709" stroke="#000" stroke-width="0.4" stroke-linecap="round" stroke-linejoin="round"></path><path d="M60.202 104.923c.313-3.585 3.325-6.403 6.986-6.403.529 0 1.036.054 1.533.162l.086.022c1.674-4.492 5.993-7.688 11.067-7.688 1.88 0 3.66.443 5.237 1.22.076-2.084.853-8.595 7.612-12.903 3.553-2.256 7.127-2.699 9.88-2.548l.054-.162s.864-18.593 23.246-16.757l45.371.42a8.67 8.67 0 018.67 8.671 8.614 8.614 0 01-1.501 4.88l.032.044c6.468 2.915 10.97 9.426 10.97 16.984 0 10.29-8.335 18.625-18.625 18.625-1.393 0-2.764-.151-4.07-.443l.054.033c-2.97 4.891-8.347 8.163-14.49 8.163a16.895 16.895 0 01-12.558-5.572l-.021.076c-3.509 6.899-10.679 11.628-18.95 11.628-6.672 0-12.622-3.066-16.519-7.882l.118-.194a13.086 13.086 0 01-10.85 5.766 13.05 13.05 0 01-9.254-3.833l-.076-.173a14.38 14.38 0 01-1.62 2.257c-6.456 7.245-20.147 6.435-26.809 7.309-11.877 2.365-15.559 19.673-16.433 24.176-.12.647-.216 1.122-.216 1.122a6.728 6.728 0 01-3.002.648c-1.782-.021-3.498-.712-3.477-1.101 0 0 1.047-19.5 5.755-31.755.454-1.188 2.548-6.122 6.316-9.782a20.216 20.216 0 0113.497-5.14c.648 0 1.274.033 1.911.087h.087l-.011.043z" fill="url(#experienced-user_svgpaint7_linear_1503_210)"></path><path d="M102.657 76.634s.864-18.593 23.246-16.758M178.475 73.892c6.468 2.915 10.97 9.426 10.97 16.984 0 10.29-8.335 18.625-18.625 18.625a18.529 18.529 0 01-10.409-3.185" stroke="#000" stroke-width="0.4" stroke-linecap="round" stroke-linejoin="round"></path><path d="M171.274 60.287a8.67 8.67 0 018.67 8.67 8.67 8.67 0 01-3.736 7.137" fill="#fff"></path><path d="M171.274 60.287a8.67 8.67 0 018.67 8.67 8.67 8.67 0 01-3.736 7.137M85.111 92.247c.076-2.084.853-8.595 7.612-12.903 7.364-4.686 14.836-1.544 14.836-1.544M106.63 107.989c0 7.234-5.863 13.087-13.086 13.087a13.05 13.05 0 01-9.253-3.833" stroke="#000" stroke-width="0.4" stroke-linecap="round" stroke-linejoin="round"></path><path d="M141.894 104.631c-1.241 10.56-10.214 18.755-21.109 18.755-6.672 0-12.622-3.066-16.519-7.882" stroke="#000" stroke-width="0.4" stroke-linecap="round" stroke-linejoin="round"></path><path d="M166.814 109.091c-2.969 4.891-8.346 8.162-14.49 8.162a16.894 16.894 0 01-12.557-5.571M86.914 108.95s-.723 6.349-4.33 10.387c-6.456 7.245-20.147 6.435-26.809 7.31-11.877 2.365-15.559 19.673-16.433 24.175-.12.648-.216 1.123-.216 1.123a6.728 6.728 0 01-3.002.648c-1.782-.022-3.498-.713-3.477-1.101 0 0 1.047-19.5 5.755-31.755.454-1.188 2.548-6.122 6.316-9.783a20.214 20.214 0 0113.497-5.139c.648 0 1.274.032 1.911.086M60.85 108.529a7.018 7.018 0 017.947-9.825" stroke="#000" stroke-width="0.4" stroke-linecap="round" stroke-linejoin="round"></path><path d="M68.062 102.828c0-6.522 5.29-11.812 11.813-11.812 4.459 0 8.346 2.472 10.354 6.133" stroke="#000" stroke-width="0.4" stroke-linecap="round" stroke-linejoin="round"></path><path d="M182.201 116.206c8.616 0 15.591 6.986 15.591 15.591 0-8.616 6.986-15.591 15.591-15.591-8.616 0-15.591-6.986-15.591-15.602 0 8.616-6.986 15.591-15.591 15.591v.011z" fill="#000" stroke="#000" stroke-width="0.4" stroke-miterlimit="10"></path><path d="M67.803 44.404c11.758 0 21.293 9.534 21.293 21.292 0-11.758 9.533-21.292 21.292-21.292-11.759 0-21.293-9.534-21.293-21.292 0 11.758-9.534 21.292-21.292 21.292z" fill="url(#experienced-user_svgpaint8_linear_1503_210)" stroke="#000" stroke-width="0.4" stroke-miterlimit="10"></path><path d="M102.646 19.98a9.917 9.917 0 019.923 9.923 9.916 9.916 0 019.922-9.922c-5.485 0-9.922-4.449-9.922-9.923a9.917 9.917 0 01-9.923 9.923z" fill="url(#experienced-user_svgpaint9_linear_1503_210)" stroke="#000" stroke-width="0.4" stroke-miterlimit="10"></path><path d="M169.762 31.728H123.55a2.818 2.818 0 00-2.819 2.818v63.272a2.818 2.818 0 002.819 2.818h46.212a2.818 2.818 0 002.818-2.818V34.546a2.818 2.818 0 00-2.818-2.818z" fill="url(#experienced-user_svgpaint10_linear_1503_210)" stroke="#000" stroke-width="0.4" stroke-miterlimit="10"></path><path d="M161.221 70.879H132.09a4.923 4.923 0 00-4.923 4.923v.011a4.923 4.923 0 004.923 4.924h29.131a4.923 4.923 0 004.924-4.924v-.01a4.923 4.923 0 00-4.924-4.924z" fill="url(#experienced-user_svgpaint11_linear_1503_210)" stroke="#000" stroke-width="0.4" stroke-miterlimit="10"></path><path d="M161.221 82.356H132.09a4.923 4.923 0 00-4.923 4.924v.01a4.923 4.923 0 004.923 4.924h29.131a4.923 4.923 0 004.924-4.923v-.011a4.923 4.923 0 00-4.924-4.924z" fill="url(#experienced-user_svgpaint12_linear_1503_210)" stroke="#000" stroke-width="0.4" stroke-miterlimit="10"></path><path d="M133.71 96.123c.486 1.706 3.66 4.47 1.447 6.133-.842.637-2.462.507-3.455.626-.799.097-1.706-.011-2.495-.194-.604-.141-1.177-.389-1.781-.508-.68-.129-1.22-.01-1.695-.55-.357-.411-.853-1.296-.821-1.868.054-.929 1.501-2.063 2.365-2.02" fill="url(#experienced-user_svgpaint13_linear_1503_210)"></path><path d="M161.221 90.52a3.337 3.337 0 100-6.674 3.337 3.337 0 000 6.673z" fill="#fff" stroke="#000" stroke-width="0.4" stroke-linecap="round" stroke-linejoin="round"></path><path d="M132.652 76.396a.918.918 0 100-1.835.918.918 0 000 1.835zM136.15 76.396a.918.918 0 100-1.835.918.918 0 000 1.835zM139.648 76.396a.918.918 0 100-1.835.918.918 0 000 1.835zM143.147 76.396a.917.917 0 100-1.834.917.917 0 000 1.834zM146.645 76.396a.918.918 0 100-1.835.918.918 0 000 1.835zM150.143 76.396a.918.918 0 100-1.835.918.918 0 000 1.835zM153.642 76.396a.918.918 0 100-1.835.918.918 0 000 1.835zM157.14 76.396a.918.918 0 100-1.835.918.918 0 000 1.835zM160.638 76.396a.918.918 0 100-1.835.918.918 0 000 1.835z" fill="#000" stroke="#000" stroke-width="0.4" stroke-linecap="round" stroke-linejoin="round"></path><path d="M152.033 102.224a3.57 3.57 0 015.398-2.797 3.584 3.584 0 011.739 2.872" fill="url(#experienced-user_svgpaint14_linear_1503_210)"></path><path d="M152.033 102.224a3.57 3.57 0 015.398-2.797 3.584 3.584 0 011.739 2.872" stroke="#000" stroke-width="0.4" stroke-miterlimit="10"></path><path d="M125.223 98.52a6.429 6.429 0 015.345-2.84 6.41 6.41 0 013.228.864s2.948 1.825 2.948 4.697" fill="url(#experienced-user_svgpaint15_linear_1503_210)"></path><path d="M125.223 98.52a6.429 6.429 0 015.345-2.84 6.41 6.41 0 013.228.864s2.948 1.825 2.948 4.697" stroke="#000" stroke-width="0.4" stroke-miterlimit="10"></path><path d="M109.848 99.761a9.924 9.924 0 018.292-4.459c5.485 0 9.934 4.449 9.934 9.934" fill="url(#experienced-user_svgpaint16_linear_1503_210)"></path><path d="M109.848 99.761a9.924 9.924 0 018.292-4.459c5.485 0 9.934 4.449 9.934 9.934" stroke="#000" stroke-width="0.4" stroke-miterlimit="10"></path><path d="M155.456 42.06h-15.775a2.419 2.419 0 00-2.419 2.42v15.774a2.419 2.419 0 002.419 2.419h15.775a2.419 2.419 0 002.418-2.419V44.48a2.419 2.419 0 00-2.418-2.418z" fill="#fff" stroke="#000" stroke-width="0.4" stroke-linecap="round" stroke-linejoin="round"></path><path d="M150.003 49.338v1.879c3.531.54 6.122 2.289 6.122 4.351v4.233a.77.77 0 01-.766.766h-15.387a.77.77 0 01-.766-.766v-4.233c0-2.03 2.516-3.757 5.96-4.33v-3.746a2.415 2.415 0 012.419-2.419 2.415 2.415 0 012.418 2.419v.302l.821 1.544h-.821z" fill="url(#experienced-user_svgpaint17_linear_1503_210)" stroke="#000" stroke-width="0.4" stroke-miterlimit="10"></path><path d="M162.388 85.963a1.672 1.672 0 01-1.167 2.872 1.668 1.668 0 01-1.673-1.674c0-.442.173-.842.453-1.144" fill="#fff"></path><path d="M162.388 85.963a1.672 1.672 0 01-1.167 2.872 1.668 1.668 0 01-1.673-1.674c0-.442.173-.842.453-1.144M161.221 85.293v1.998" stroke="#000" stroke-width="0.4" stroke-linecap="round" stroke-linejoin="round"></path><defs><linearGradient id="experienced-user_svgpaint0_linear_1503_210" x1="178.033" y1="168.227" x2="219.948" y2="168.227" gradientUnits="userSpaceOnUse"><stop stop-color="#3E87FA"></stop><stop offset="0.35" stop-color="#3E87FA"></stop><stop offset="0.78" stop-color="#635DFF"></stop><stop offset="1" stop-color="#635DFF"></stop></linearGradient><linearGradient id="experienced-user_svgpaint1_linear_1503_210" x1="178.794" y1="168.225" x2="219.944" y2="168.225" gradientUnits="userSpaceOnUse"><stop stop-color="#635DFF"></stop><stop offset="1" stop-color="#3885FF"></stop></linearGradient><linearGradient id="experienced-user_svgpaint2_linear_1503_210" x1="117.417" y1="224.189" x2="177.525" y2="224.189" gradientUnits="userSpaceOnUse"><stop stop-color="#E9ECEE"></stop><stop offset="1" stop-color="#fff"></stop></linearGradient><linearGradient id="experienced-user_svgpaint3_linear_1503_210" x1="65.525" y1="150.12" x2="181.693" y2="249.099" gradientUnits="userSpaceOnUse"><stop stop-color="#3E87FA"></stop><stop offset="0.35" stop-color="#3E87FA"></stop><stop offset="0.78" stop-color="#635DFF"></stop><stop offset="1" stop-color="#635DFF"></stop></linearGradient><linearGradient id="experienced-user_svgpaint4_linear_1503_210" x1="113.864" y1="224.19" x2="181.078" y2="224.19" gradientUnits="userSpaceOnUse"><stop stop-color="#3E87FA"></stop><stop offset="0.35" stop-color="#3E87FA"></stop><stop offset="0.78" stop-color="#635DFF"></stop><stop offset="1" stop-color="#635DFF"></stop></linearGradient><linearGradient id="experienced-user_svgpaint5_linear_1503_210" x1="126.476" y1="177.567" x2="167.495" y2="224.309" gradientUnits="userSpaceOnUse"><stop stop-color="#3E87FA"></stop><stop offset="0.35" stop-color="#3E87FA"></stop><stop offset="0.78" stop-color="#635DFF"></stop><stop offset="1" stop-color="#635DFF"></stop></linearGradient><linearGradient id="experienced-user_svgpaint6_linear_1503_210" x1="139.658" y1="130.102" x2="154.127" y2="130.102" gradientUnits="userSpaceOnUse"><stop stop-color="#FF4F40"></stop><stop offset="1" stop-color="#F4D"></stop></linearGradient><linearGradient id="experienced-user_svgpaint7_linear_1503_210" x1="51.132" y1="152.863" x2="147.498" y2="83.091" gradientUnits="userSpaceOnUse"><stop stop-color="#E9ECEE"></stop><stop offset="1" stop-color="#fff"></stop></linearGradient><linearGradient id="experienced-user_svgpaint8_linear_1503_210" x1="67.801" y1="44.403" x2="110.385" y2="44.403" gradientUnits="userSpaceOnUse"><stop stop-color="#FF4F40"></stop><stop offset="1" stop-color="#F4D"></stop></linearGradient><linearGradient id="experienced-user_svgpaint9_linear_1503_210" x1="102.646" y1="19.981" x2="122.491" y2="19.981" gradientUnits="userSpaceOnUse"><stop stop-color="#2BC8A0"></stop><stop offset="1" stop-color="#47C7E9"></stop></linearGradient><linearGradient id="experienced-user_svgpaint10_linear_1503_210" x1="146.656" y1="114.003" x2="146.656" y2="42.093" gradientUnits="userSpaceOnUse"><stop stop-color="#E9ECEE"></stop><stop offset="1" stop-color="#fff"></stop></linearGradient><linearGradient id="experienced-user_svgpaint11_linear_1503_210" x1="127.165" y1="75.808" x2="166.143" y2="75.808" gradientUnits="userSpaceOnUse"><stop stop-color="#FF4F40"></stop><stop offset="1" stop-color="#F4D"></stop></linearGradient><linearGradient id="experienced-user_svgpaint12_linear_1503_210" x1="121.384" y1="82.732" x2="123.364" y2="98.144" gradientUnits="userSpaceOnUse"><stop stop-color="#3EC6EB"></stop><stop offset="0.999" stop-color="#1BC99F"></stop></linearGradient><linearGradient id="experienced-user_svgpaint13_linear_1503_210" x1="71.107" y1="136.775" x2="152" y2="87.097" gradientUnits="userSpaceOnUse"><stop stop-color="#E9ECEE"></stop><stop offset="1" stop-color="#fff"></stop></linearGradient><linearGradient id="experienced-user_svgpaint14_linear_1503_210" x1="78.482" y1="148.771" x2="159.375" y2="99.082" gradientUnits="userSpaceOnUse"><stop stop-color="#E9ECEE"></stop><stop offset="1" stop-color="#fff"></stop></linearGradient><linearGradient id="experienced-user_svgpaint15_linear_1503_210" x1="66.065" y1="139.409" x2="153.857" y2="85.488" gradientUnits="userSpaceOnUse"><stop stop-color="#E9ECEE"></stop><stop offset="1" stop-color="#fff"></stop></linearGradient><linearGradient id="experienced-user_svgpaint16_linear_1503_210" x1="68.678" y1="132.823" x2="149.571" y2="83.134" gradientUnits="userSpaceOnUse"><stop stop-color="#E9ECEE"></stop><stop offset="1" stop-color="#fff"></stop></linearGradient><linearGradient id="experienced-user_svg_paint17_linear_1503_210" x1="139.208" y1="52.82" x2="156.127" y2="52.82" gradientUnits="userSpaceOnUse"><stop stop-color="#635DFF"></stop><stop offset="1" stop-color="#3885FF"></stop></linearGradient></defs></svg>
