<svg height="1em" width="1em" xmlns="http://www.w3.org/2000/svg" viewBox="0 0 16 16" class="sc-gtbeZJ"><path fill-rule="evenodd" d="M3.5 14.5V1.5H12.5V14.5H3.5ZM2 0.5C2 0.223858 2.22386 0 2.5 0H13.5C13.7761 0 14 0.223858 14 0.5V15.5C14 15.7761 13.7761 16 13.5 16H2.5C2.22386 16 2 15.7761 2 15.5V0.5ZM5 10.5C5 10.2239 5.22386 10 5.5 10H10.5C10.7761 10 11 10.2239 11 10.5C11 10.7761 10.7761 11 10.5 11H5.5C5.22386 11 5 10.7761 5 10.5ZM5 12.5C5 12.2239 5.22386 12 5.5 12H10.5C10.7761 12 11 12.2239 11 12.5C11 12.7761 10.7761 13 10.5 13H5.5C5.22386 13 5 12.7761 5 12.5Z" fill="currentColor"></path></svg>