<svg height="1em" width="1em" xmlns="http://www.w3.org/2000/svg" viewBox="0 0 16 16" class="sc-gtbeZJ"><path fill-rule="evenodd" d="M4 14.5V1.5H13V14.5H4ZM2.5 0.5C2.5 0.223858 2.72386 0 3 0H14C14.2761 0 14.5 0.223858 14.5 0.5V15.5C14.5 15.7761 14.2761 16 14 16H3C2.72386 16 2.5 15.7761 2.5 15.5V0.5ZM5.5 3.5C5.5 3.22386 5.72386 3 6 3H11C11.2761 3 11.5 3.22386 11.5 3.5C11.5 3.77614 11.2761 4 11 4H6C5.72386 4 5.5 3.77614 5.5 3.5ZM5.5 5.5C5.5 5.22386 5.72386 5 6 5H11C11.2761 5 11.5 5.22386 11.5 5.5C11.5 5.77614 11.2761 6 11 6H6C5.72386 6 5.5 5.77614 5.5 5.5Z" fill="currentColor"></path></svg>