<svg width="64" height="64" viewBox="0 0 64 64" fill="none" xmlns="http://www.w3.org/2000/svg">
<path d="M43.5217 17.1758H20.4775C17.4818 17.1758 15.0532 19.6043 15.0532 22.6001V41.4043C15.0532 44.4 17.4818 46.8286 20.4775 46.8286H43.5217C46.5174 46.8286 48.946 44.4 48.946 41.4043V22.6001C48.946 19.6043 46.5174 17.1758 43.5217 17.1758Z" fill="black"/>
<path fill-rule="evenodd" clip-rule="evenodd" d="M20.1518 23.239C20.4347 23.239 20.7061 23.1267 20.9061 22.9266C21.1062 22.7265 21.2186 22.4552 21.2186 22.1723C21.2186 21.8893 21.1062 21.618 20.9061 21.4179C20.7061 21.2179 20.4347 21.1055 20.1518 21.1055C19.8986 21.1045 19.6528 21.1907 19.4557 21.3496C19.3284 21.4455 19.2253 21.5698 19.1547 21.7127C19.084 21.8555 19.0478 22.0129 19.0489 22.1723C19.0512 22.3147 19.0816 22.4553 19.1383 22.5861C19.195 22.7168 19.2769 22.8351 19.3793 22.9341C19.4818 23.0332 19.6027 23.1111 19.7352 23.1634C19.8678 23.2157 20.0093 23.2414 20.1518 23.239V23.239Z" fill="#FF4C6F"/>
<path d="M23.9037 23.239C24.5129 23.239 25.0067 22.7614 25.0067 22.1722C25.0067 21.5831 24.5129 21.1055 23.9037 21.1055C23.2946 21.1055 22.8008 21.5831 22.8008 22.1722C22.8008 22.7614 23.2946 23.239 23.9037 23.239Z" fill="#CCD2DC"/>
<path fill-rule="evenodd" clip-rule="evenodd" d="M27.6557 23.2423C27.865 23.2352 28.0676 23.1667 28.2382 23.0452C28.4088 22.9238 28.5399 22.7548 28.6151 22.5594C28.6903 22.3639 28.7064 22.1506 28.6612 21.9462C28.616 21.7417 28.5117 21.555 28.3612 21.4094C28.2106 21.2638 28.0206 21.1657 27.8147 21.1274C27.6088 21.0891 27.3962 21.1122 27.2033 21.1939C27.0105 21.2756 26.846 21.4122 26.7303 21.5868C26.6146 21.7614 26.5529 21.9661 26.5527 22.1756C26.5551 22.318 26.5855 22.4586 26.6422 22.5893C26.6989 22.7201 26.7808 22.8383 26.8832 22.9374C26.9856 23.0365 27.1066 23.1144 27.2391 23.1667C27.3717 23.219 27.5132 23.2447 27.6557 23.2423V23.2423Z" fill="#CCD2DC"/>
<path d="M30.9379 42.8945L43.1426 42.8945C44.1412 42.8945 44.9507 42.085 44.9507 41.0864L44.9507 35.6983C44.9507 34.6997 44.1412 33.8902 43.1426 33.8902L30.9379 33.8902C29.9394 33.8902 29.1298 34.6997 29.1298 35.6983L29.1298 41.0864C29.1298 42.085 29.9394 42.8945 30.9379 42.8945Z" fill="#CCD2DC"/>
<path d="M20.8574 42.8945L25.4771 42.8945C26.4756 42.8945 27.2852 42.085 27.2852 41.0864L27.2852 35.6983C27.2852 34.6997 26.4756 33.8902 25.4771 33.8902L20.8574 33.8902C19.8588 33.8902 19.0493 34.6997 19.0493 35.6983L19.0493 41.0864C19.0493 42.085 19.8588 42.8945 20.8574 42.8945Z" fill="#CCD2DC"/>
<path d="M43.1422 26.4883L20.8574 26.4883C19.8588 26.4883 19.0493 27.2978 19.0493 28.2964L19.0493 30.2491C19.0493 31.2477 19.8588 32.0572 20.8574 32.0572L43.1422 32.0572C44.1408 32.0572 44.9503 31.2477 44.9503 30.2491L44.9503 28.2964C44.9503 27.2978 44.1408 26.4883 43.1422 26.4883Z" fill="url(#paint0_linear_3052_372353)"/>
<defs>
<linearGradient id="paint0_linear_3052_372353" x1="19.0481" y1="29.2726" x2="44.9487" y2="29.2726" gradientUnits="userSpaceOnUse">
<stop stop-color="#FF4F40"/>
<stop offset="1" stop-color="#FF44DD"/>
</linearGradient>
</defs>
</svg>
