<svg width="64" height="64" viewBox="0 0 64 64" fill="none" xmlns="http://www.w3.org/2000/svg">
<path d="M43.5222 17.1758H20.478C17.4822 17.1758 15.0537 19.6043 15.0537 22.6001V41.4043C15.0537 44.4 17.4822 46.8286 20.478 46.8286H43.5222C46.5179 46.8286 48.9465 44.4 48.9465 41.4043V22.6001C48.9465 19.6043 46.5179 17.1758 43.5222 17.1758Z" fill="black"/>
<path fill-rule="evenodd" clip-rule="evenodd" d="M20.1523 23.239C20.4352 23.239 20.7065 23.1267 20.9066 22.9266C21.1067 22.7265 21.219 22.4552 21.219 22.1723C21.219 21.8893 21.1067 21.618 20.9066 21.4179C20.7065 21.2179 20.4352 21.1055 20.1523 21.1055C19.8991 21.1045 19.6533 21.1907 19.4562 21.3496C19.3289 21.4455 19.2258 21.5698 19.1552 21.7127C19.0845 21.8555 19.0483 22.0129 19.0493 22.1723C19.0517 22.3147 19.0821 22.4553 19.1388 22.5861C19.1955 22.7168 19.2774 22.8351 19.3798 22.9341C19.4823 23.0332 19.6032 23.1111 19.7357 23.1634C19.8683 23.2157 20.0098 23.2414 20.1523 23.239V23.239Z" fill="#FF4C6F"/>
<path d="M23.9042 23.239C24.5133 23.239 25.0071 22.7614 25.0071 22.1722C25.0071 21.5831 24.5133 21.1055 23.9042 21.1055C23.2951 21.1055 22.8013 21.5831 22.8013 22.1722C22.8013 22.7614 23.2951 23.239 23.9042 23.239Z" fill="#CCD2DC"/>
<path fill-rule="evenodd" clip-rule="evenodd" d="M27.6557 23.2423C27.865 23.2352 28.0676 23.1667 28.2382 23.0452C28.4088 22.9238 28.5399 22.7548 28.6151 22.5594C28.6903 22.3639 28.7064 22.1506 28.6612 21.9462C28.616 21.7417 28.5117 21.555 28.3612 21.4094C28.2106 21.2638 28.0206 21.1657 27.8147 21.1274C27.6088 21.0891 27.3962 21.1122 27.2033 21.1939C27.0105 21.2756 26.846 21.4122 26.7303 21.5868C26.6146 21.7614 26.5529 21.9661 26.5527 22.1756C26.5551 22.318 26.5855 22.4586 26.6422 22.5893C26.6989 22.7201 26.7808 22.8383 26.8832 22.9374C26.9856 23.0365 27.1066 23.1144 27.2391 23.1667C27.3717 23.219 27.5132 23.2447 27.6557 23.2423V23.2423Z" fill="#CCD2DC"/>
<path d="M30.9375 42.8945H43.1421C44.1407 42.8945 44.9502 42.085 44.9502 41.0864V35.6983C44.9502 34.6997 44.1407 33.8902 43.1421 33.8902H30.9375C29.9389 33.8902 29.1294 34.6997 29.1294 35.6983V41.0864C29.1294 42.085 29.9389 42.8945 30.9375 42.8945Z" fill="url(#paint0_linear_3052_372047)"/>
<path d="M20.8569 42.8945H25.4766C26.4752 42.8945 27.2847 42.085 27.2847 41.0864V35.6983C27.2847 34.6997 26.4752 33.8902 25.4766 33.8902H20.8569C19.8583 33.8902 19.0488 34.6997 19.0488 35.6983V41.0864C19.0488 42.085 19.8583 42.8945 20.8569 42.8945Z" fill="#4C73FF"/>
<path d="M43.1422 26.4883H20.8574C19.8588 26.4883 19.0493 27.2978 19.0493 28.2964V30.2491C19.0493 31.2477 19.8588 32.0572 20.8574 32.0572H43.1422C44.1408 32.0572 44.9503 31.2477 44.9503 30.2491V28.2964C44.9503 27.2978 44.1408 26.4883 43.1422 26.4883Z" fill="#CCD2DC"/>
<defs>
<linearGradient id="paint0_linear_3052_372047" x1="44.9502" y1="43.655" x2="29.1293" y2="33.4049" gradientUnits="userSpaceOnUse">
<stop stop-color="#635DFF"/>
<stop offset="1" stop-color="#3885FF"/>
</linearGradient>
</defs>
</svg>
