<svg width="24" height="24" viewBox="0 0 25 25" fill="none" xmlns="http://www.w3.org/2000/svg"><path d="M14.5245 8.97665C14.7866 7.569 16.8033 7.569 17.0654 8.97665L17.5486 11.5714C17.6464 12.0966 18.0573 12.5075 18.5825 12.6053L21.1773 13.0885C22.5849 13.3506 22.5849 15.3673 21.1773 15.6294L18.5825 16.1126C18.0573 16.2104 17.6464 16.6213 17.5486 17.1465L17.0654 19.7412C16.8033 21.1489 14.7866 21.1489 14.5245 19.7412L14.0413 17.1465C13.9435 16.6213 13.5326 16.2104 13.0074 16.1126L10.4127 15.6294C9.00504 15.3673 9.00504 13.3506 10.4127 13.0885L13.0074 12.6053C13.5326 12.5075 13.9435 12.0966 14.0413 11.5714L14.5245 8.97665Z" fill="#3BC0F2"></path><path d="M6.37544 15.3541C6.5043 14.6621 7.4957 14.6621 7.62456 15.3541L7.86208 16.6297C7.91016 16.8878 8.11215 17.0898 8.37034 17.1379L9.64592 17.3754C10.3379 17.5043 10.3379 18.4957 9.64591 18.6246L8.37034 18.8621C8.11215 18.9102 7.91016 19.1122 7.86208 19.3703L7.62456 20.6459C7.4957 21.3379 6.5043 21.3379 6.37544 20.6459L6.13792 19.3703C6.08984 19.1122 5.88785 18.9102 5.62966 18.8621L4.35409 18.6246C3.66209 18.4957 3.66209 17.5043 4.35409 17.3754L5.62966 17.1379C5.88785 17.0898 6.08984 16.8878 6.13792 16.6297L6.37544 15.3541Z" fill="#0A86B1"></path><path d="M7.71858 4.81612C7.90361 3.82249 9.32716 3.82249 9.51219 4.81612L9.85324 6.64772C9.92228 7.01845 10.2123 7.30849 10.5831 7.37753L12.4146 7.71858C13.4083 7.90361 13.4083 9.32716 12.4146 9.51219L10.5831 9.85324C10.2123 9.92228 9.92228 10.2123 9.85324 10.5831L9.51219 12.4146C9.32716 13.4083 7.90361 13.4083 7.71858 12.4146L7.37753 10.5831C7.30849 10.2123 7.01845 9.92228 6.64772 9.85324L4.81612 9.51219C3.82249 9.32716 3.82249 7.90361 4.81612 7.71858L6.64772 7.37753C7.01845 7.30849 7.30849 7.01845 7.37753 6.64772L7.71858 4.81612Z" fill="#693DF4"></path></svg>