<svg width="456" height="206" viewBox="0 0 456 206" fill="none" xmlns="http://www.w3.org/2000/svg">
<g filter="url(#filter0_d)">
<path d="M12 8C12 3.58172 15.5817 0 20 0H436C440.418 0 444 3.58172 444 8V206H12V8Z" fill="white"/>
<rect x="28" y="56" width="400" height="200" rx="8" fill="#EFF0F2"/>
<rect x="120" y="76.0001" width="40" height="8" rx="4" fill="#C9CACE"/>
<rect x="120" y="168" width="288" height="72" rx="4" fill="#E3E4E6"/>
<rect x="120" y="96" width="288" height="64" rx="4" fill="#E3E4E6"/>
<rect x="128" y="104" width="272" height="8" rx="2" fill="#BCBAFF"/>
<rect x="128" y="104" width="120" height="8" rx="4" fill="#96989D"/>
<rect x="128" y="120" width="40" height="8" rx="4" fill="#C9CACE"/>
<rect x="224" y="120" width="48" height="8" rx="2" fill="#C9CACE"/>
<rect x="320" y="120" width="48" height="8" rx="2" fill="#C9CACE"/>
<rect x="128" y="136" width="16" height="16" rx="4" fill="#96989D"/>
<rect x="152" y="136" width="64" height="16" rx="4" fill="#96989D"/>
<rect x="248" y="136" width="64" height="16" rx="2" fill="#C9CACE"/>
<rect x="344" y="136" width="56" height="16" rx="2" fill="#C9CACE"/>
<rect x="128" y="176" width="48" height="8" rx="4" fill="#96989D"/>
<rect x="128" y="192" width="48" height="8" rx="4" fill="#C9CACE"/>
<rect x="224" y="136" width="16" height="16" rx="2" fill="#635DFF"/>
<rect x="184" y="176" width="80" height="8" rx="4" fill="#96989D"/>
<rect x="184" y="192" width="80" height="8" rx="4" fill="#C9CACE"/>
<rect x="320" y="136" width="16" height="16" rx="2" fill="#635DFF"/>
<rect x="272" y="176" width="56" height="8" rx="2" fill="#13A688"/>
<rect x="272" y="192" width="56" height="8" rx="2" fill="#D03C38"/>
<rect x="336" y="176" width="40" height="8" rx="2" fill="#C9CACE"/>
<rect x="336" y="192" width="40" height="8" rx="2" fill="#C9CACE"/>
<rect x="384" y="176" width="16" height="8" rx="2" fill="#C9CACE"/>
<rect x="384" y="192" width="16" height="8" rx="2" fill="#C9CACE"/>
<rect x="48" y="76.0001" width="48" height="8" rx="4" fill="#C9CACE"/>
<rect x="384" y="76.0001" width="24" height="8" rx="2" fill="#96989D"/>
<rect x="352" y="76.0001" width="24" height="8" rx="2" fill="#96989D"/>
<path fill-rule="evenodd" clip-rule="evenodd" d="M52 120C49.7909 120 48 121.791 48 124C48 126.209 49.7909 128 52 128H91.999C94.2082 128 95.999 126.209 95.999 124C95.999 121.791 94.2082 120 91.999 120H52ZM52 136C49.7909 136 48 137.791 48 140C48 142.209 49.7909 144 52 144H91.999C94.2082 144 95.999 142.209 95.999 140C95.999 137.791 94.2082 136 91.999 136H52ZM48 156C48 153.791 49.7909 152 52 152H91.999C94.2082 152 95.999 153.791 95.999 156C95.999 158.209 94.2082 160 91.999 160H52C49.7909 160 48 158.209 48 156ZM52 168C49.7909 168 48 169.791 48 172C48 174.209 49.7909 176 52 176H91.999C94.2082 176 95.999 174.209 95.999 172C95.999 169.791 94.2082 168 91.999 168H52ZM48 188C48 185.791 49.7909 184 52 184H91.999C94.2082 184 95.999 185.791 95.999 188C95.999 190.209 94.2082 192 91.999 192H52C49.7909 192 48 190.209 48 188ZM52 200C49.7909 200 48 201.791 48 204C48 206.209 49.7909 208 52 208H91.999C94.2082 208 95.999 206.209 95.999 204C95.999 201.791 94.2082 200 91.999 200H52Z" fill="#C9CACE"/>
<rect x="48" y="96" width="48" height="16" rx="4" fill="#96989D"/>
<g clip-path="url(#clip0)">
<path d="M28 28L40 28V40H28L28 28Z" fill="#F1D977"/>
<path d="M52 40L40 40L40 28L52 28L52 40Z" fill="#31CEA8"/>
<path d="M40 16L52 16V28H40V16Z" fill="#908BFF"/>
<path d="M40 28L28 28L28 16L40 16L40 28Z" fill="#FF79E7"/>
</g>
<rect x="60" y="20" width="56" height="16" rx="4" fill="#C9CACE"/>
<rect x="124" y="20" width="32" height="16" rx="4" fill="#65676E"/>
<g filter="url(#filter1_d)">
<rect x="188" y="48" width="240" height="296" rx="8" fill="white"/>
<rect x="188" y="56" width="240" height="48" fill="#F9F9FB"/>
<rect x="204" y="64" width="32" height="32" rx="4" fill="#8D2B72"/>
<path d="M217.077 85L218.012 82.3054H221.989L222.919 85H224.55L220.886 74.8182H219.111L215.447 85H217.077ZM218.459 81.0128L219.961 76.6676H220.04L221.542 81.0128H218.459Z" fill="white"/>
<path d="M249.979 85L250.913 82.3054H254.891L255.82 85H257.451L253.787 74.8182H252.012L248.348 85H249.979ZM251.361 81.0128L252.862 76.6676H252.942L254.443 81.0128H251.361ZM262.031 88.0078C263.975 88.0078 265.476 87.1179 265.476 85.169V77.3636H264.019V78.6016H263.91C263.646 78.1293 263.119 77.2642 261.698 77.2642C259.853 77.2642 258.496 78.7209 258.496 81.152C258.496 83.5881 259.883 84.8857 261.688 84.8857C263.09 84.8857 263.632 84.0952 263.9 83.608H263.994V85.1094C263.994 86.2876 263.174 86.8097 262.046 86.8097C260.808 86.8097 260.325 86.1882 260.062 85.7656L258.784 86.2926C259.187 87.2124 260.206 88.0078 262.031 88.0078ZM262.016 83.6527C260.688 83.6527 259.997 82.6335 259.997 81.1321C259.997 79.6655 260.673 78.527 262.016 78.527C263.313 78.527 264.009 79.5859 264.009 81.1321C264.009 82.7081 263.298 83.6527 262.016 83.6527ZM270.911 85.1541C272.576 85.1541 273.755 84.3338 274.093 83.0909L272.686 82.8374C272.417 83.5582 271.771 83.9261 270.926 83.9261C269.653 83.9261 268.798 83.1009 268.758 81.6293H274.187V81.1023C274.187 78.343 272.537 77.2642 270.806 77.2642C268.679 77.2642 267.277 78.8849 267.277 81.2315C267.277 83.603 268.659 85.1541 270.911 85.1541ZM268.763 80.5156C268.823 79.4318 269.608 78.4922 270.816 78.4922C271.97 78.4922 272.725 79.3473 272.73 80.5156H268.763ZM277.473 80.4659C277.473 79.2479 278.219 78.5518 279.253 78.5518C280.262 78.5518 280.873 79.2131 280.873 80.3217V85H282.36V80.1428C282.36 78.2536 281.321 77.2642 279.76 77.2642C278.611 77.2642 277.861 77.7962 277.508 78.6065H277.413V77.3636H275.986V85H277.473V80.4659ZM287.72 85.1541C289.525 85.1541 290.693 84.0703 290.857 82.5838H289.411C289.222 83.4091 288.58 83.8963 287.73 83.8963C286.472 83.8963 285.662 82.8473 285.662 81.1818C285.662 79.5462 286.487 78.517 287.73 78.517C288.675 78.517 289.251 79.1136 289.411 79.8295H290.857C290.698 78.2884 289.44 77.2642 287.705 77.2642C285.553 77.2642 284.161 78.8849 284.161 81.2166C284.161 83.5185 285.503 85.1541 287.72 85.1541ZM293.537 87.8438C294.765 87.8438 295.545 87.2024 295.983 86.0192L299.14 77.3786L297.534 77.3636L295.6 83.2898H295.52L293.586 77.3636H291.995L294.789 85.0994L294.605 85.6065C294.228 86.5959 293.696 86.6854 292.88 86.4616L292.522 87.6797C292.701 87.7642 293.089 87.8438 293.537 87.8438ZM306.201 74.8182H304.665V85H306.201V74.8182ZM309.955 80.4659C309.955 79.2479 310.701 78.5518 311.735 78.5518C312.744 78.5518 313.356 79.2131 313.356 80.3217V85H314.842V80.1428C314.842 78.2536 313.803 77.2642 312.242 77.2642C311.094 77.2642 310.343 77.7962 309.99 78.6065H309.896V77.3636H308.469V85H309.955V80.4659ZM320.203 85.1541C322.007 85.1541 323.176 84.0703 323.34 82.5838H321.893C321.704 83.4091 321.063 83.8963 320.213 83.8963C318.955 83.8963 318.144 82.8473 318.144 81.1818C318.144 79.5462 318.97 78.517 320.213 78.517C321.157 78.517 321.734 79.1136 321.893 79.8295H323.34C323.181 78.2884 321.923 77.2642 320.188 77.2642C318.035 77.2642 316.643 78.8849 316.643 81.2166C316.643 83.5185 317.985 85.1541 320.203 85.1541ZM326.059 85.0945C326.601 85.0945 327.053 84.652 327.053 84.1001C327.053 83.5582 326.601 83.1108 326.059 83.1108C325.512 83.1108 325.064 83.5582 325.064 84.1001C325.064 84.652 325.512 85.0945 326.059 85.0945Z" fill="#1E212A"/>
<rect x="204" y="112" width="32" height="32" rx="4" fill="#493FA3"/>
<path fill-rule="evenodd" clip-rule="evenodd" d="M225.146 135.012H222.482H218.041H215.376H213.6V134.124H215.376V120.8H225.146V134.124H226.923V135.012H225.146ZM218.929 134.124H221.594V130.571H218.929V134.124ZM224.258 121.688H216.265V134.124H218.041V129.683H222.482V134.124H224.258V121.688ZM220.706 126.13H223.37V128.794H220.706V126.13ZM221.594 127.906H222.482V127.018H221.594V127.906ZM220.706 122.576H223.37V125.242H220.706V122.576ZM221.594 124.353H222.482V123.464H221.594V124.353ZM217.153 126.13H219.817V128.794H217.153V126.13ZM218.041 127.906H218.929V127.018H218.041V127.906ZM217.153 122.576H219.817V125.242H217.153V122.576ZM218.041 124.353H218.929V123.464H218.041V124.353Z" fill="white"/>
<path d="M249.119 133H253.021C255.388 133 256.457 131.822 256.457 130.261C256.457 128.685 255.353 127.795 254.344 127.74V127.641C255.278 127.402 256.059 126.766 256.059 125.493C256.059 123.987 255.015 122.818 252.847 122.818H249.119V133ZM250.655 131.683V128.421H252.927C254.16 128.421 254.93 129.217 254.93 130.186C254.93 131.041 254.349 131.683 252.872 131.683H250.655ZM250.655 127.223V124.126H252.753C253.971 124.126 254.553 124.767 254.553 125.612C254.553 126.597 253.747 127.223 252.713 127.223H250.655ZM258.309 133H259.796V125.364H258.309V133ZM259.06 124.185C259.572 124.185 260 123.788 260 123.3C260 122.813 259.572 122.411 259.06 122.411C258.543 122.411 258.121 122.813 258.121 123.3C258.121 123.788 258.543 124.185 259.06 124.185ZM265.147 136.008C267.091 136.008 268.593 135.118 268.593 133.169V125.364H267.136V126.602H267.027C266.763 126.129 266.236 125.264 264.814 125.264C262.97 125.264 261.613 126.721 261.613 129.152C261.613 131.588 263 132.886 264.804 132.886C266.206 132.886 266.748 132.095 267.017 131.608H267.111V133.109C267.111 134.288 266.291 134.81 265.162 134.81C263.924 134.81 263.442 134.188 263.179 133.766L261.901 134.293C262.304 135.212 263.323 136.008 265.147 136.008ZM265.133 131.653C263.805 131.653 263.114 130.634 263.114 129.132C263.114 127.665 263.79 126.527 265.133 126.527C266.43 126.527 267.126 127.586 267.126 129.132C267.126 130.708 266.415 131.653 265.133 131.653ZM274.711 133H276.247V128.56H281.323V133H282.864V122.818H281.323V127.243H276.247V122.818H274.711V133ZM288.349 133.154C290.501 133.154 291.908 131.578 291.908 129.217C291.908 126.84 290.501 125.264 288.349 125.264C286.196 125.264 284.789 126.84 284.789 129.217C284.789 131.578 286.196 133.154 288.349 133.154ZM288.354 131.906C286.947 131.906 286.29 130.678 286.29 129.212C286.29 127.75 286.947 126.507 288.354 126.507C289.751 126.507 290.407 127.75 290.407 129.212C290.407 130.678 289.751 131.906 288.354 131.906ZM295.204 122.818H293.718V133H295.204V122.818ZM300.213 133.149C301.605 133.149 302.152 132.299 302.42 131.812H302.544V133H303.996V122.818H302.51V126.602H302.42C302.152 126.129 301.644 125.264 300.223 125.264C298.378 125.264 297.021 126.721 297.021 129.197C297.021 131.668 298.358 133.149 300.213 133.149ZM300.541 131.881C299.213 131.881 298.522 130.713 298.522 129.182C298.522 127.665 299.198 126.527 300.541 126.527C301.838 126.527 302.534 127.586 302.534 129.182C302.534 130.788 301.823 131.881 300.541 131.881ZM306.268 133H307.754V125.364H306.268V133ZM307.018 124.185C307.53 124.185 307.958 123.788 307.958 123.3C307.958 122.813 307.53 122.411 307.018 122.411C306.501 122.411 306.079 122.813 306.079 123.3C306.079 123.788 306.501 124.185 307.018 124.185ZM311.39 128.466C311.39 127.248 312.136 126.552 313.17 126.552C314.18 126.552 314.791 127.213 314.791 128.322V133H316.278V128.143C316.278 126.254 315.238 125.264 313.677 125.264C312.529 125.264 311.778 125.796 311.425 126.607H311.331V125.364H309.904V133H311.39V128.466ZM321.623 136.008C323.567 136.008 325.068 135.118 325.068 133.169V125.364H323.612V126.602H323.502C323.239 126.129 322.712 125.264 321.29 125.264C319.445 125.264 318.088 126.721 318.088 129.152C318.088 131.588 319.475 132.886 321.28 132.886C322.682 132.886 323.224 132.095 323.492 131.608H323.587V133.109C323.587 134.288 322.766 134.81 321.638 134.81C320.4 134.81 319.918 134.188 319.654 133.766L318.376 134.293C318.779 135.212 319.798 136.008 321.623 136.008ZM321.608 131.653C320.281 131.653 319.589 130.634 319.589 129.132C319.589 127.665 320.266 126.527 321.608 126.527C322.906 126.527 323.602 127.586 323.602 129.132C323.602 130.708 322.891 131.653 321.608 131.653ZM332.934 127.228C332.626 126.04 331.696 125.264 330.046 125.264C328.32 125.264 327.097 126.174 327.097 127.526C327.097 128.61 327.754 129.331 329.186 129.649L330.478 129.933C331.214 130.097 331.557 130.425 331.557 130.902C331.557 131.494 330.926 131.956 329.951 131.956C329.061 131.956 328.489 131.573 328.311 130.822L326.874 131.041C327.122 132.393 328.246 133.154 329.961 133.154C331.806 133.154 333.083 132.175 333.083 130.793C333.083 129.714 332.397 129.048 330.995 128.724L329.782 128.446C328.942 128.247 328.579 127.964 328.584 127.447C328.579 126.86 329.215 126.442 330.061 126.442C330.985 126.442 331.413 126.955 331.587 127.467L332.934 127.228ZM347.299 126.129C346.951 123.952 345.245 122.679 343.093 122.679C340.458 122.679 338.514 124.653 338.514 127.909C338.514 131.165 340.448 133.139 343.093 133.139C345.33 133.139 346.966 131.737 347.299 129.724L345.748 129.719C345.484 131.021 344.39 131.737 343.103 131.737C341.358 131.737 340.04 130.4 340.04 127.909C340.04 125.438 341.353 124.081 343.108 124.081C344.405 124.081 345.494 124.812 345.748 126.129H347.299ZM352.384 133.154C354.537 133.154 355.944 131.578 355.944 129.217C355.944 126.84 354.537 125.264 352.384 125.264C350.232 125.264 348.825 126.84 348.825 129.217C348.825 131.578 350.232 133.154 352.384 133.154ZM352.389 131.906C350.982 131.906 350.326 130.678 350.326 129.212C350.326 127.75 350.982 126.507 352.389 126.507C353.786 126.507 354.443 127.75 354.443 129.212C354.443 130.678 353.786 131.906 352.389 131.906ZM358.733 133.094C359.275 133.094 359.727 132.652 359.727 132.1C359.727 131.558 359.275 131.111 358.733 131.111C358.186 131.111 357.738 131.558 357.738 132.1C357.738 132.652 358.186 133.094 358.733 133.094Z" fill="#1E212A"/>
<rect x="204" y="160" width="32" height="32" rx="4" fill="#1071F2"/>
<path fill-rule="evenodd" clip-rule="evenodd" d="M220 169.333L222.06 173.507L226.667 174.18L223.333 177.427L224.12 182.013L220 179.847L215.88 182.013L216.667 177.427L213.333 174.18L217.94 173.507L220 169.333V169.333Z" stroke="white" stroke-width="1.5" stroke-linecap="round" stroke-linejoin="round"/>
<path d="M257.575 174.129C257.227 171.952 255.522 170.679 253.369 170.679C250.734 170.679 248.79 172.653 248.79 175.909C248.79 179.165 250.724 181.139 253.369 181.139C255.607 181.139 257.242 179.737 257.575 177.724L256.024 177.719C255.761 179.021 254.667 179.737 253.379 179.737C251.634 179.737 250.317 178.4 250.317 175.909C250.317 173.438 251.629 172.081 253.384 172.081C254.682 172.081 255.771 172.812 256.024 174.129H257.575ZM264.282 177.833C264.287 179.131 263.322 179.747 262.487 179.747C261.567 179.747 260.931 179.081 260.931 178.042V173.364H259.444V178.221C259.444 180.115 260.483 181.099 261.95 181.099C263.098 181.099 263.879 180.493 264.232 179.678H264.311V181H265.773V173.364H264.282V177.833ZM273.643 175.228C273.334 174.04 272.405 173.264 270.754 173.264C269.029 173.264 267.806 174.174 267.806 175.526C267.806 176.61 268.462 177.331 269.894 177.649L271.187 177.933C271.923 178.097 272.266 178.425 272.266 178.902C272.266 179.494 271.634 179.956 270.66 179.956C269.77 179.956 269.198 179.573 269.019 178.822L267.582 179.041C267.831 180.393 268.954 181.154 270.67 181.154C272.514 181.154 273.792 180.175 273.792 178.793C273.792 177.714 273.106 177.048 271.704 176.724L270.491 176.446C269.65 176.247 269.288 175.964 269.293 175.447C269.288 174.86 269.924 174.442 270.769 174.442C271.694 174.442 272.121 174.955 272.295 175.467L273.643 175.228ZM279.141 173.364H277.575V171.534H276.088V173.364H274.97V174.557H276.088V179.066C276.083 180.453 277.142 181.124 278.316 181.099C278.788 181.094 279.106 181.005 279.28 180.94L279.012 179.712C278.912 179.732 278.728 179.777 278.49 179.777C278.007 179.777 277.575 179.618 277.575 178.758V174.557H279.141V173.364ZM284.07 181.154C286.223 181.154 287.629 179.578 287.629 177.217C287.629 174.84 286.223 173.264 284.07 173.264C281.917 173.264 280.51 174.84 280.51 177.217C280.51 179.578 281.917 181.154 284.07 181.154ZM284.075 179.906C282.668 179.906 282.012 178.678 282.012 177.212C282.012 175.75 282.668 174.507 284.075 174.507C285.472 174.507 286.128 175.75 286.128 177.212C286.128 178.678 285.472 179.906 284.075 179.906ZM289.439 181H290.925V176.292C290.925 175.263 291.646 174.547 292.491 174.547C293.317 174.547 293.888 175.094 293.888 175.924V181H295.37V176.133C295.37 175.213 295.932 174.547 296.901 174.547C297.687 174.547 298.333 174.984 298.333 176.018V181H299.819V175.879C299.819 174.134 298.845 173.264 297.463 173.264C296.364 173.264 295.539 173.791 295.171 174.607H295.091C294.758 173.771 294.057 173.264 293.038 173.264C292.029 173.264 291.278 173.766 290.96 174.607H290.866V173.364H289.439V181ZM305.253 181.154C306.918 181.154 308.097 180.334 308.435 179.091L307.028 178.837C306.759 179.558 306.113 179.926 305.268 179.926C303.995 179.926 303.14 179.101 303.1 177.629H308.529V177.102C308.529 174.343 306.879 173.264 305.149 173.264C303.021 173.264 301.619 174.885 301.619 177.232C301.619 179.603 303.001 181.154 305.253 181.154ZM303.105 176.516C303.165 175.432 303.95 174.492 305.159 174.492C306.312 174.492 307.068 175.347 307.073 176.516H303.105ZM310.329 181H311.815V176.337C311.815 175.337 312.586 174.616 313.64 174.616C313.948 174.616 314.296 174.671 314.415 174.706V173.284C314.266 173.264 313.973 173.249 313.784 173.249C312.889 173.249 312.123 173.756 311.845 174.577H311.765V173.364H310.329V181ZM328.283 174.129C327.935 171.952 326.229 170.679 324.077 170.679C321.442 170.679 319.498 172.653 319.498 175.909C319.498 179.165 321.432 181.139 324.077 181.139C326.314 181.139 327.95 179.737 328.283 177.724L326.732 177.719C326.468 179.021 325.374 179.737 324.087 179.737C322.342 179.737 321.024 178.4 321.024 175.909C321.024 173.438 322.337 172.081 324.092 172.081C325.389 172.081 326.478 172.812 326.732 174.129H328.283ZM333.368 181.154C335.521 181.154 336.928 179.578 336.928 177.217C336.928 174.84 335.521 173.264 333.368 173.264C331.216 173.264 329.809 174.84 329.809 177.217C329.809 179.578 331.216 181.154 333.368 181.154ZM333.373 179.906C331.966 179.906 331.31 178.678 331.31 177.212C331.31 175.75 331.966 174.507 333.373 174.507C334.77 174.507 335.426 175.75 335.426 177.212C335.426 178.678 334.77 179.906 333.373 179.906ZM339.717 181.094C340.258 181.094 340.711 180.652 340.711 180.1C340.711 179.558 340.258 179.111 339.717 179.111C339.17 179.111 338.722 179.558 338.722 180.1C338.722 180.652 339.17 181.094 339.717 181.094Z" fill="#1E212A"/>
</g>
</g>
<defs>
<filter id="filter0_d" x="0" y="0" width="456" height="368" filterUnits="userSpaceOnUse" color-interpolation-filters="sRGB">
<feFlood flood-opacity="0" result="BackgroundImageFix"/>
<feColorMatrix in="SourceAlpha" type="matrix" values="0 0 0 0 0 0 0 0 0 0 0 0 0 0 0 0 0 0 127 0"/>
<feOffset dy="12"/>
<feGaussianBlur stdDeviation="6"/>
<feColorMatrix type="matrix" values="0 0 0 0 0 0 0 0 0 0 0 0 0 0 0 0 0 0 0.1 0"/>
<feBlend mode="normal" in2="BackgroundImageFix" result="effect1_dropShadow"/>
<feBlend mode="normal" in="SourceGraphic" in2="effect1_dropShadow" result="shape"/>
</filter>
<filter id="filter1_d" x="176" y="48" width="264" height="320" filterUnits="userSpaceOnUse" color-interpolation-filters="sRGB">
<feFlood flood-opacity="0" result="BackgroundImageFix"/>
<feColorMatrix in="SourceAlpha" type="matrix" values="0 0 0 0 0 0 0 0 0 0 0 0 0 0 0 0 0 0 127 0"/>
<feOffset dy="12"/>
<feGaussianBlur stdDeviation="6"/>
<feColorMatrix type="matrix" values="0 0 0 0 0 0 0 0 0 0 0 0 0 0 0 0 0 0 0.1 0"/>
<feBlend mode="normal" in2="BackgroundImageFix" result="effect1_dropShadow"/>
<feBlend mode="normal" in="SourceGraphic" in2="effect1_dropShadow" result="shape"/>
</filter>
<clipPath id="clip0">
<rect x="28" y="16" width="24" height="24" rx="12" fill="white"/>
</clipPath>
</defs>
</svg>
