<svg width="40" height="40" viewBox="0 0 40 40" fill="none" xmlns="http://www.w3.org/2000/svg">
<g clip-path="url(#clip0)">
<path d="M20.3613 13.9213C16.8053 13.9213 13.9213 16.8053 13.9213 20.3613C13.9213 23.9173 16.8053 26.8013 20.3613 26.8013C23.9173 26.8013 26.8013 23.9173 26.8013 20.3613C26.8013 16.8053 23.9213 13.9213 20.3613 13.9213ZM10.3213 20.3613C10.3213 14.8133 14.8173 10.3213 20.3613 10.3213C25.9093 10.3213 30.4053 14.8173 30.4053 20.3613C30.4053 20.7293 30.3853 21.0893 30.3493 21.4453C30.2733 22.4253 30.9933 23.1733 31.9653 23.1733C33.6173 23.1733 33.7933 21.0453 33.7933 20.3613C33.7933 12.9453 27.7813 6.93725 20.3693 6.93725C12.9573 6.93725 6.93731 12.9493 6.93731 20.3613C6.93731 27.7773 12.9493 33.7853 20.3613 33.7853C24.2973 33.7853 27.8413 32.0893 30.2973 29.3893L33.0573 31.7053C29.9413 35.1893 25.4053 37.3853 20.3613 37.3853C10.9573 37.3853 3.33331 29.7613 3.33331 20.3573C3.33331 10.9533 10.9573 3.33325 20.3613 3.33325C29.7653 3.33325 37.3893 10.9573 37.3893 20.3613C37.3893 24.1413 35.5893 27.2093 31.9733 27.2093C30.3813 27.2093 29.4133 26.4813 28.8853 25.6653C27.1173 28.5133 23.9613 30.4053 20.3613 30.4053C14.8173 30.4053 10.3213 25.9093 10.3213 20.3613ZM20.3613 17.4173C21.9893 17.4173 23.3093 18.7373 23.3093 20.3653C23.3093 21.9933 21.9893 23.3133 20.3613 23.3133C18.7333 23.3133 17.4133 21.9933 17.4133 20.3653C17.4133 18.7373 18.7333 17.4173 20.3613 17.4173Z" fill="#C12126"/>
</g>
<defs>
<clipPath id="clip0">
<rect width="40" height="40" fill="white"/>
</clipPath>
</defs>
</svg>
