<svg width="40" height="40" viewBox="0 0 40 40" fill="none" xmlns="http://www.w3.org/2000/svg">
<g clip-path="url(#clip0)">
<path d="M20.1213 20.864L8.01919 3.43945H7.98792V18.3113L8.01919 18.3568L20.1213 36.1529L14.8976 28.4714L20.1213 20.864Z" fill="black"/>
<path d="M32.0686 3.4646L20.121 20.864L25.3447 28.4714L20.121 36.1529L32.0686 18.5847V3.71503V3.4646Z" fill="#F8A141"/>
<path d="M20.1211 20.8638L14.8975 28.4712L20.1211 36.1527L25.3447 28.4712L20.1211 20.8638Z" fill="#C77B2A"/>
<path d="M32.0687 3.43936V3.46452L32.086 3.43936H32.0687Z" fill="#D21F38"/>
<path d="M39.858 3.43945V7.13112L32.0686 18.5847V18.8351V36.6701H40.0281V7.13112V3.43945H39.858Z" fill="#D21F38"/>
<path d="M40.0236 3.44444L32.2562 3.43945H32.0859L32.0686 3.46461V3.71505V18.5847L40.0236 7.13634V3.44444Z" fill="#9F1D2D"/>
<path d="M0.0591114 3.43945H0.0280762V6.65257V36.6701H7.98778V18.3568V18.3113L0.0591114 6.65257V3.43945Z" fill="#3FB8E5"/>
<path d="M0.0592651 3.43945V6.65257L7.98794 18.3113V3.43945H0.0592651Z" fill="#008BC1"/>
</g>
<defs>
<clipPath id="clip0">
<rect width="40" height="40" fill="white"/>
</clipPath>
</defs>
</svg>
