<svg width="32" height="28" viewBox="0 0 32 28" fill="none" xmlns="http://www.w3.org/2000/svg">
<path fill-rule="evenodd" clip-rule="evenodd" d="M9.23329 0C8.36904 0.00180231 7.52303 0.484244 7.08796 1.22022L0.321221 12.7798C-0.107074 13.5177 -0.107074 14.4823 0.321221 15.2202L7.08796 26.7798C7.52308 27.5158 8.36904 27.9983 9.23329 28H22.7667C23.631 27.9982 24.4769 27.5158 24.9121 26.7798L31.6788 15.2202C32.1071 14.4823 32.107 13.5177 31.6788 12.7798L24.9121 1.22022C24.4769 0.484244 23.631 0.00166714 22.7667 0H9.23329ZM9.35611 6.76248C9.3747 6.76067 9.3942 6.76067 9.41285 6.76248H11.7472C11.8505 6.76458 11.9507 6.8233 12.0023 6.91151L15.9622 13.851C15.9821 13.8853 15.995 13.9235 15.9999 13.9627C16.0047 13.9235 16.0176 13.8853 16.0375 13.851L19.9879 6.91151C20.0411 6.82063 20.1461 6.76158 20.2525 6.76248H22.5868C22.7935 6.76428 22.9483 7.02031 22.8515 7.20027L18.9861 14L22.8515 20.7904C22.9575 20.9714 22.7989 21.2393 22.5868 21.2375H20.2525C20.1442 21.2366 20.0387 21.1735 19.9879 21.0792L16.0375 14.1397C16.0176 14.1054 16.0047 14.0672 15.9999 14.0279C15.995 14.0672 15.9821 14.1054 15.9622 14.1397L12.0023 21.0792C11.9531 21.1708 11.8523 21.2334 11.7472 21.2375H9.41285C9.20078 21.2393 9.04222 20.9714 9.14825 20.7904L13.0136 14L9.14825 7.20027C9.05559 7.03608 9.16864 6.79752 9.35611 6.76248Z" fill="#3498DB"/>
</svg>
