<svg width="48" height="48" viewBox="0 0 48 48" fill="none" xmlns="http://www.w3.org/2000/svg">
<g id="aws-avatar">
<g id="Amazon_Web_Services_Logo">
<path id="Shape" fill-rule="evenodd" clip-rule="evenodd" d="M33.8172 24.7683C34.3802 24.9083 34.9656 24.9783 35.551 24.9783C36.1252 24.9783 36.6543 24.8967 37.1609 24.7333C37.6451 24.5817 38.0616 24.3717 38.4106 24.08C38.7596 23.8 39.0298 23.45 39.2325 23.0533C39.4239 22.6567 39.5252 22.2017 39.5252 21.7C39.5252 21.0933 39.3563 20.545 39.0073 20.0667C38.6583 19.5883 38.0729 19.215 37.2623 18.9467L35.6636 18.4217C35.0669 18.2233 34.6504 18.0017 34.4252 17.78C34.2 17.5583 34.0874 17.2783 34.0874 16.9517C34.0874 16.4733 34.2676 16.135 34.6166 15.9133C34.9656 15.6917 35.4722 15.5867 36.1139 15.5867C36.9133 15.5867 37.6338 15.7383 38.2755 16.0417C38.4669 16.135 38.6133 16.1817 38.7033 16.1817C38.8722 16.1817 38.9623 16.0533 38.9623 15.8083V15.26C38.9623 15.0967 38.9285 14.9683 38.8609 14.875C38.7934 14.77 38.6808 14.6767 38.5232 14.5833C38.4106 14.5133 38.253 14.4433 38.0504 14.3733C37.8477 14.3033 37.6338 14.245 37.4086 14.1867C37.1722 14.14 36.9358 14.0933 36.6768 14.0583C36.4292 14.0233 36.1702 14.0117 35.9225 14.0117C35.4272 14.0117 34.9543 14.07 34.504 14.21C34.0537 14.35 33.6709 14.5483 33.3331 14.8167C32.9954 15.0733 32.7252 15.4 32.5225 15.7733C32.3199 16.1467 32.2186 16.5783 32.2186 17.0683C32.2186 17.675 32.41 18.2467 32.7815 18.76C33.153 19.285 33.7609 19.6817 34.5828 19.95L36.2153 20.475C36.7669 20.6617 37.1497 20.86 37.3523 21.0817C37.555 21.3033 37.6563 21.5717 37.6563 21.8983C37.6563 22.3767 37.4537 22.75 37.0709 23.0067C36.6881 23.2633 36.1364 23.3917 35.4272 23.3917C34.9768 23.3917 34.5378 23.345 34.0874 23.2517C33.6484 23.1583 33.2318 23.0183 32.849 22.8433C32.8091 22.8268 32.7707 22.8103 32.7346 22.7948C32.6689 22.7665 32.6112 22.7417 32.5676 22.7267C32.5 22.7033 32.4325 22.6917 32.3649 22.6917C32.196 22.6917 32.106 22.8083 32.106 23.0533V23.6483C32.106 23.7533 32.1285 23.87 32.1735 23.975C32.2186 24.08 32.3424 24.1967 32.5225 24.3017C32.8153 24.4767 33.2543 24.6283 33.8172 24.7683ZM16.7384 22.6683C16.6596 22.4117 16.6146 22.0617 16.6146 21.63H16.5921V17.85C16.5921 16.5667 16.2768 15.61 15.6576 14.98C15.0272 14.35 14.0477 14.035 12.708 14.035C12.0888 14.035 11.5033 14.105 10.9517 14.2567C10.4 14.3967 9.92717 14.5717 9.53313 14.7817C9.37552 14.8633 9.27419 14.945 9.2179 15.0267C9.16161 15.1083 9.13909 15.2483 9.13909 15.435V16.0067C9.13909 16.2517 9.2179 16.3683 9.37552 16.3683C9.42055 16.3683 9.47684 16.3567 9.55565 16.3333C9.63446 16.31 9.76956 16.2633 9.94969 16.1817C10.3437 16.0183 10.749 15.89 11.1656 15.785C11.5821 15.68 11.9874 15.6333 12.3815 15.6333C13.2484 15.6333 13.8563 15.8083 14.2166 16.17C14.5656 16.5317 14.7457 17.15 14.7457 18.0367V18.8883C14.2954 18.7833 13.8676 18.69 13.451 18.6317C13.0345 18.5733 12.6404 18.5383 12.2576 18.5383C11.098 18.5383 10.1861 18.8417 9.49936 19.4483C8.8126 20.055 8.47485 20.86 8.47485 21.8517C8.47485 22.785 8.75631 23.5317 9.30797 24.0917C9.85962 24.6517 10.6139 24.9317 11.5596 24.9317C12.8881 24.9317 13.9914 24.395 14.8696 23.3217C14.9934 23.59 15.106 23.8117 15.2186 24.01C15.3311 24.1967 15.4662 24.3833 15.6239 24.5583C15.7364 24.6633 15.849 24.7217 15.9616 24.7217C16.0517 24.7217 16.153 24.6867 16.2543 24.6167L16.9636 24.1267C17.11 24.01 17.1775 23.8933 17.1775 23.7767C17.1775 23.695 17.155 23.6017 17.0987 23.5083C16.9411 23.205 16.8285 22.925 16.7384 22.6683ZM13.2033 23.1933C12.798 23.3333 12.4153 23.4033 12.0437 23.4033C11.5258 23.4033 11.1318 23.2633 10.8616 22.9717C10.5802 22.6917 10.4451 22.2833 10.4451 21.735C10.4451 21.1517 10.6252 20.7083 10.9967 20.3933C11.3682 20.0783 11.9199 19.9267 12.6742 19.9267C13.0232 19.9267 13.3722 19.95 13.7325 19.9967C14.0927 20.0433 14.4417 20.1133 14.7682 20.195V20.685C14.7682 21.0817 14.7232 21.42 14.6556 21.7C14.5881 21.98 14.453 22.225 14.2729 22.4467C13.9689 22.7967 13.6086 23.0533 13.2033 23.1933ZM21.0841 24.6633C20.8815 24.6633 20.7464 24.6283 20.6563 24.5467C20.5662 24.4767 20.4874 24.3133 20.4199 24.0917L17.7742 15.0733C17.7066 14.84 17.6729 14.6883 17.6729 14.6067C17.6729 14.42 17.7629 14.315 17.9431 14.315H19.0464C19.2603 14.315 19.4066 14.35 19.4854 14.4317C19.5755 14.5017 19.6431 14.665 19.7106 14.8867L21.602 22.61L23.3583 14.8867C23.4146 14.6533 23.4821 14.5017 23.5722 14.4317C23.6623 14.3617 23.8199 14.315 24.0225 14.315H24.9232C25.1371 14.315 25.2835 14.35 25.3735 14.4317C25.4636 14.5017 25.5424 14.665 25.5874 14.8867L27.3662 22.7033L29.3139 14.8867C29.3815 14.6533 29.4603 14.5017 29.5391 14.4317C29.6292 14.3617 29.7755 14.315 29.9782 14.315H31.0252C31.2053 14.315 31.3066 14.4083 31.3066 14.6067C31.3066 14.6565 31.2984 14.7063 31.289 14.7634L31.289 14.7634L31.2841 14.7933C31.2729 14.8633 31.2504 14.9567 31.2053 15.085L28.4921 24.1033C28.4245 24.3367 28.3457 24.4883 28.2556 24.5583C28.1656 24.6283 28.0192 24.675 27.8278 24.675H26.8596C26.6457 24.675 26.4994 24.64 26.4093 24.5583C26.3192 24.4767 26.2404 24.325 26.1954 24.0917L24.4503 16.5667L22.7166 24.08C22.6603 24.3133 22.5927 24.465 22.5027 24.5467C22.4126 24.6283 22.255 24.6633 22.0523 24.6633H21.0841Z" fill="#252F3E"/>
<g id="Group">
<path id="Shape_2" fill-rule="evenodd" clip-rule="evenodd" d="M37.6788 30.6483C33.9748 33.4833 28.5934 34.9883 23.9662 34.9883C17.4814 34.9883 11.6384 32.5033 7.22516 28.3733C6.87615 28.0467 7.19138 27.6033 7.60794 27.86C12.3814 30.73 18.2695 32.4683 24.3603 32.4683C28.4695 32.4683 32.9841 31.5817 37.1384 29.7617C37.7576 29.47 38.2867 30.1817 37.6788 30.6483Z" fill="#FF9900"/>
<path id="Shape_3" fill-rule="evenodd" clip-rule="evenodd" d="M39.2212 28.8283C38.7484 28.1983 36.0914 28.525 34.8868 28.6767C34.5265 28.7233 34.4702 28.3967 34.7967 28.1517C36.9133 26.6117 40.3921 27.055 40.7974 27.5683C41.2027 28.0933 40.6848 31.6983 38.7033 33.425C38.3994 33.6933 38.1066 33.5533 38.2417 33.2033C38.6921 32.0483 39.6941 29.4467 39.2212 28.8283Z" fill="#FF9900"/>
</g>
</g>
</g>
</svg>
