<svg width="200" height="162" viewBox="0 0 200 162" fill="none" xmlns="http://www.w3.org/2000/svg">
    <path
      d="M83.1685 20.584H5.89265C3.12673 20.584 0.880005 22.8307 0.880005 25.5966V117.722C0.880005 120.488 3.12673 122.734 5.89265 122.734H83.1685C85.9344 122.734 88.1811 120.488 88.1811 117.722V25.5966C88.1717 22.8307 85.9344 20.584 83.1685 20.584Z"
      fill="#EAECEE"
      stroke="black"
      strokeWidth="0.3776"
      stroke-miterlimit="10"
    />
    <path
      d="M20.1358 85.2437C21.2452 82.5656 19.9734 79.4952 17.2952 78.3858C14.6171 77.2765 11.5467 78.5483 10.4374 81.2264C9.32802 83.9046 10.5998 86.9749 13.2779 88.0843C15.9561 89.1936 19.0265 87.9219 20.1358 85.2437Z"
      fill="#BDC4CF"
      stroke="black"
      strokeWidth="0.3776"
      stroke-miterlimit="10"
    />
    <path
      d="M20.1335 69.6311C21.2428 66.953 19.9711 63.8826 17.2929 62.7733C14.6148 61.6639 11.5444 62.9357 10.435 65.6138C9.3257 68.292 10.5975 71.3623 13.2756 72.4717C15.9538 73.581 19.0241 72.3093 20.1335 69.6311Z"
      fill="#BDC4CF"
      stroke="black"
      strokeWidth="0.3776"
      stroke-miterlimit="10"
    />
    <path
      d="M15.2854 57.2584C18.1841 57.2584 20.534 54.9085 20.534 52.0098C20.534 49.111 18.1841 46.7611 15.2854 46.7611C12.3866 46.7611 10.0367 49.111 10.0367 52.0098C10.0367 54.9085 12.3866 57.2584 15.2854 57.2584Z"
      fill="#BDC4CF"
      stroke="black"
      strokeWidth="0.3776"
      stroke-miterlimit="10"
    />
    <path
      d="M15.2854 41.6541C18.1841 41.6541 20.534 39.3042 20.534 36.4054C20.534 33.5067 18.1841 31.1568 15.2854 31.1568C12.3866 31.1568 10.0367 33.5067 10.0367 36.4054C10.0367 39.3042 12.3866 41.6541 15.2854 41.6541Z"
      fill="#BDC4CF"
      stroke="black"
      strokeWidth="0.3776"
      stroke-miterlimit="10"
    />
    <path
      d="M75.9657 111.595H30.9464C30.1817 111.595 29.5681 112.209 29.5681 112.973C29.5681 113.738 30.1817 114.352 30.9464 114.352H75.9657C76.7304 114.352 77.344 113.738 77.344 112.973C77.344 112.209 76.7304 111.595 75.9657 111.595Z"
      fill="#BDC4CF"
      stroke="black"
      strokeWidth="0.3776"
      stroke-miterlimit="10"
    />
    <path
      d="M75.9657 105.94H30.9464C30.1817 105.94 29.5681 106.554 29.5681 107.319C29.5681 108.083 30.1817 108.697 30.9464 108.697H75.9657C76.7304 108.697 77.344 108.083 77.344 107.319C77.344 106.554 76.7304 105.94 75.9657 105.94Z"
      fill="#BDC4CF"
      stroke="black"
      strokeWidth="0.3776"
      stroke-miterlimit="10"
    />
    <path
      d="M75.9657 100.286H30.9464C30.1817 100.286 29.5681 100.9 29.5681 101.664C29.5681 102.429 30.1817 103.042 30.9464 103.042H75.9657C76.7304 103.042 77.344 102.429 77.344 101.664C77.344 100.9 76.7304 100.286 75.9657 100.286Z"
      fill="#BDC4CF"
      stroke="black"
      strokeWidth="0.3776"
      stroke-miterlimit="10"
    />
    <path
      d="M39.1215 78.9326H29.5682V88.4859H39.1215V78.9326Z"
      fill="#ECEFF0"
      stroke="black"
      strokeWidth="0.3776"
      stroke-miterlimit="10"
    />
    <path
      d="M48.6747 78.9326H39.1215V88.4859H48.6747V78.9326Z"
      fill="#ECEFF0"
      stroke="black"
      strokeWidth="0.3776"
      stroke-miterlimit="10"
    />
    <path
      d="M58.2375 78.9326H48.6842V88.4859H58.2375V78.9326Z"
      fill="#ECEFF0"
      stroke="black"
      strokeWidth="0.3776"
      stroke-miterlimit="10"
    />
    <path
      d="M67.7907 78.9326H58.2374V88.4859H67.7907V78.9326Z"
      fill="#ECEFF0"
      stroke="black"
      strokeWidth="0.3776"
      stroke-miterlimit="10"
    />
    <path
      d="M77.344 78.9326H67.7908V88.4859H77.344V78.9326Z"
      fill="#ECEFF0"
      stroke="black"
      strokeWidth="0.3776"
      stroke-miterlimit="10"
    />
    <path
      d="M39.1215 69.3699H29.5682V78.9232H39.1215V69.3699Z"
      fill="#ECEFF0"
      stroke="black"
      strokeWidth="0.3776"
      stroke-miterlimit="10"
    />
    <path
      d="M48.6747 69.3699H39.1215V78.9232H48.6747V69.3699Z"
      fill="#ECEFF0"
      stroke="black"
      strokeWidth="0.3776"
      stroke-miterlimit="10"
    />
    <path
      d="M58.2375 69.3699H48.6842V78.9232H58.2375V69.3699Z"
      fill="#ECEFF0"
      stroke="black"
      strokeWidth="0.3776"
      stroke-miterlimit="10"
    />
    <path
      d="M67.7907 69.3699H58.2374V78.9232H67.7907V69.3699Z"
      fill="#ECEFF0"
      stroke="black"
      strokeWidth="0.3776"
      stroke-miterlimit="10"
    />
    <path
      d="M77.344 69.3699H67.7908V78.9232H77.344V69.3699Z"
      fill="#ECEFF0"
      stroke="black"
      strokeWidth="0.3776"
      stroke-miterlimit="10"
    />
    <path
      d="M39.1215 59.8167H29.5682V69.3699H39.1215V59.8167Z"
      fill="#ECEFF0"
      stroke="black"
      strokeWidth="0.3776"
      stroke-miterlimit="10"
    />
    <path
      d="M48.6747 59.8167H39.1215V69.3699H48.6747V59.8167Z"
      fill="#ECEFF0"
      stroke="black"
      strokeWidth="0.3776"
      stroke-miterlimit="10"
    />
    <path
      d="M58.2375 59.8167H48.6842V69.3699H58.2375V59.8167Z"
      fill="#ECEFF0"
      stroke="black"
      strokeWidth="0.3776"
      stroke-miterlimit="10"
    />
    <path
      d="M67.7907 59.8167H58.2374V69.3699H67.7907V59.8167Z"
      fill="#ECEFF0"
      stroke="black"
      strokeWidth="0.3776"
      stroke-miterlimit="10"
    />
    <path
      d="M77.344 59.8167H67.7908V69.3699H77.344V59.8167Z"
      fill="#ECEFF0"
      stroke="black"
      strokeWidth="0.3776"
      stroke-miterlimit="10"
    />
    <path
      d="M39.1215 50.2634H29.5682V59.8166H39.1215V50.2634Z"
      fill="#ECEFF0"
      stroke="black"
      strokeWidth="0.3776"
      stroke-miterlimit="10"
    />
    <path
      d="M48.6747 50.2634H39.1215V59.8166H48.6747V50.2634Z"
      fill="#ECEFF0"
      stroke="black"
      strokeWidth="0.3776"
      stroke-miterlimit="10"
    />
    <path
      d="M58.2375 50.2634H48.6842V59.8166H58.2375V50.2634Z"
      fill="#ECEFF0"
      stroke="black"
      strokeWidth="0.3776"
      stroke-miterlimit="10"
    />
    <path
      d="M67.7907 50.2634H58.2374V59.8166H67.7907V50.2634Z"
      fill="#ECEFF0"
      stroke="black"
      strokeWidth="0.3776"
      stroke-miterlimit="10"
    />
    <path
      d="M77.344 50.2634H67.7908V59.8166H77.344V50.2634Z"
      fill="#ECEFF0"
      stroke="black"
      strokeWidth="0.3776"
      stroke-miterlimit="10"
    />
    <path
      d="M39.1215 40.7101H29.5682V50.2634H39.1215V40.7101Z"
      fill="#ECEFF0"
      stroke="black"
      strokeWidth="0.3776"
      stroke-miterlimit="10"
    />
    <path
      d="M48.6747 40.7101H39.1215V50.2634H48.6747V40.7101Z"
      fill="#ECEFF0"
      stroke="black"
      strokeWidth="0.3776"
      stroke-miterlimit="10"
    />
    <path
      d="M58.2375 40.7101H48.6842V50.2634H58.2375V40.7101Z"
      fill="#ECEFF0"
      stroke="black"
      strokeWidth="0.3776"
      stroke-miterlimit="10"
    />
    <path
      d="M67.7907 40.7101H58.2374V50.2634H67.7907V40.7101Z"
      fill="#ECEFF0"
      stroke="black"
      strokeWidth="0.3776"
      stroke-miterlimit="10"
    />
    <path
      d="M77.344 40.7101H67.7908V50.2634H77.344V40.7101Z"
      fill="#ECEFF0"
      stroke="black"
      strokeWidth="0.3776"
      stroke-miterlimit="10"
    />
    <path
      d="M39.1214 31.1473H29.5681V40.7006H39.1214V31.1473Z"
      fill="#ECEFF0"
      stroke="black"
      strokeWidth="0.3776"
      stroke-miterlimit="10"
    />
    <path
      d="M48.6747 31.1473H39.1215V40.7006H48.6747V31.1473Z"
      fill="#ECEFF0"
      stroke="black"
      strokeWidth="0.3776"
      stroke-miterlimit="10"
    />
    <path
      d="M58.2375 31.1473H48.6842V40.7006H58.2375V31.1473Z"
      fill="#ECEFF0"
      stroke="black"
      strokeWidth="0.3776"
      stroke-miterlimit="10"
    />
    <path
      d="M67.7907 31.1473H58.2374V40.7006H67.7907V31.1473Z"
      fill="#ECEFF0"
      stroke="black"
      strokeWidth="0.3776"
      stroke-miterlimit="10"
    />
    <path
      d="M77.344 31.1473H67.7908V40.7006H77.344V31.1473Z"
      fill="#ECEFF0"
      stroke="black"
      strokeWidth="0.3776"
      stroke-miterlimit="10"
    />
    <path
      d="M15.342 115.522C19.8726 115.522 23.5454 111.849 23.5454 107.319C23.5454 102.788 19.8726 99.1154 15.342 99.1154C10.8114 99.1154 7.13867 102.788 7.13867 107.319C7.13867 111.849 10.8114 115.522 15.342 115.522Z"
      fill="#BDC4CF"
      stroke="black"
      strokeWidth="0.3776"
      stroke-miterlimit="10"
    />
    <path
      d="M15.3421 112.775C18.3555 112.775 20.7984 110.332 20.7984 107.319C20.7984 104.305 18.3555 101.862 15.3421 101.862C12.3286 101.862 9.88574 104.305 9.88574 107.319C9.88574 110.332 12.3286 112.775 15.3421 112.775Z"
      fill="#EAECEE"
      stroke="black"
      strokeWidth="0.3776"
      stroke-miterlimit="10"
    />
    <path
      d="M18.3206 108.425C18.9324 106.778 18.0932 104.947 16.4462 104.335C14.7992 103.723 12.9682 104.563 12.3564 106.21C11.7446 107.857 12.5838 109.688 14.2308 110.299C15.8778 110.911 17.7089 110.072 18.3206 108.425Z"
      fill="white"
      stroke="black"
      strokeWidth="0.3776"
      stroke-miterlimit="10"
    />
    <path
      d="M127.376 13.9383H199.224V104.694C199.224 110.056 194.881 114.399 189.52 114.399H137.09C131.728 114.399 127.385 110.056 127.385 104.694V13.9383H127.376Z"
      fill="#EAECEE"
      stroke="black"
      strokeWidth="0.3776"
      stroke-miterlimit="10"
    />
    <path
      d="M146.303 42.5827H165.882V38.4763H146.303V42.5827Z"
      fill="#BDC4CF"
      stroke="black"
      strokeWidth="0.3776"
      stroke-miterlimit="10"
    />
    <path
      d="M165.882 42.5792C167.018 42.5792 167.94 41.6579 167.94 40.5213C167.94 39.3847 167.018 38.4634 165.882 38.4634C164.745 38.4634 163.824 39.3847 163.824 40.5213C163.824 41.6579 164.745 42.5792 165.882 42.5792Z"
      fill="#EAECEE"
      stroke="black"
      strokeWidth="0.3776"
      stroke-miterlimit="10"
    />
    <path
      d="M146.31 49.7639L186.241 49.7639V45.6575L146.31 45.6575V49.7639Z"
      fill="#BDC4CF"
      stroke="black"
      strokeWidth="0.3776"
      stroke-miterlimit="10"
    />
    <path
      d="M186.225 49.7631C187.361 49.7631 188.283 48.8418 188.283 47.7052C188.283 46.5686 187.361 45.6473 186.225 45.6473C185.088 45.6473 184.167 46.5686 184.167 47.7052C184.167 48.8418 185.088 49.7631 186.225 49.7631Z"
      fill="#EAECEE"
      stroke="black"
      strokeWidth="0.3776"
      stroke-miterlimit="10"
    />
    <path
      d="M146.307 64.1415H183.217V60.0351L146.307 60.0351V64.1415Z"
      fill="#BDC4CF"
      stroke="black"
      strokeWidth="0.3776"
      stroke-miterlimit="10"
    />
    <path
      d="M183.204 64.1402C184.341 64.1402 185.262 63.2188 185.262 62.0823C185.262 60.9457 184.341 60.0244 183.204 60.0244C182.068 60.0244 181.146 60.9457 181.146 62.0823C181.146 63.2188 182.068 64.1402 183.204 64.1402Z"
      fill="#EAECEE"
      stroke="black"
      strokeWidth="0.3776"
      stroke-miterlimit="10"
    />
    <path
      d="M146.307 56.951L178.129 56.951V52.8446H146.307V56.951Z"
      fill="#BDC4CF"
      stroke="black"
      strokeWidth="0.3776"
      stroke-miterlimit="10"
    />
    <path
      d="M178.125 56.9564C179.262 56.9564 180.183 56.035 180.183 54.8984C180.183 53.7619 179.262 52.8405 178.125 52.8405C176.989 52.8405 176.068 53.7619 176.068 54.8984C176.068 56.035 176.989 56.9564 178.125 56.9564Z"
      fill="#EAECEE"
      stroke="black"
      strokeWidth="0.3776"
      stroke-miterlimit="10"
    />
    <path
      d="M146.308 71.3286H170.729V67.2222H146.308V71.3286Z"
      fill="#BDC4CF"
      stroke="black"
      strokeWidth="0.3776"
      stroke-miterlimit="10"
    />
    <path
      d="M170.724 71.324C171.861 71.324 172.782 70.4027 172.782 69.2661C172.782 68.1296 171.861 67.2082 170.724 67.2082C169.588 67.2082 168.667 68.1296 168.667 69.2661C168.667 70.4027 169.588 71.324 170.724 71.324Z"
      fill="#EAECEE"
      stroke="black"
      strokeWidth="0.3776"
      stroke-miterlimit="10"
    />
    <path
      d="M146.307 35.3939L178.129 35.3939V31.2875L146.307 31.2875V35.3939Z"
      fill="#BDC4CF"
      stroke="black"
      strokeWidth="0.3776"
      stroke-miterlimit="10"
    />
    <path
      d="M178.125 35.3954C179.262 35.3954 180.183 34.474 180.183 33.3375C180.183 32.2009 179.262 31.2795 178.125 31.2795C176.989 31.2795 176.068 32.2009 176.068 33.3375C176.068 34.474 176.989 35.3954 178.125 35.3954Z"
      fill="#EAECEE"
      stroke="black"
      strokeWidth="0.3776"
      stroke-miterlimit="10"
    />
    <path
      d="M186.895 93.8384H167.808C164.721 93.8384 162.219 91.3368 162.219 88.2499V84.0208C162.219 80.9339 164.721 79.971 167.808 79.971H186.895C189.982 79.971 192.484 80.9339 192.484 84.0208V88.2499C192.484 91.3368 189.982 93.8384 186.895 93.8384Z"
      fill="#BDC4CF"
      stroke="black"
      strokeWidth="0.3776"
      stroke-miterlimit="10"
    />
    <path
      d="M186.688 91.8938H168.025C164.825 91.8938 162.219 89.2978 162.219 86.0882V83.8226C162.219 80.6224 164.815 78.017 168.025 78.017H186.688C189.888 78.017 192.493 80.613 192.493 83.8226V86.0882C192.484 89.2978 189.888 91.8938 186.688 91.8938Z"
      fill="#ECEFF0"
      stroke="black"
      strokeWidth="0.3776"
      stroke-miterlimit="10"
    />
    <path d="M181.335 82.2461H188.509V85.9749H165.948" stroke="black" strokeWidth="0.3776" stroke-miterlimit="10" />
    <path
      d="M168.818 88.7786L167.383 87.372L165.948 85.9749L167.383 84.5683L168.818 83.1618"
      stroke="black"
      strokeWidth="0.3776"
      stroke-miterlimit="10"
    />
    <path
      d="M136.268 0.76001H190.331C195.24 0.76001 199.224 4.74369 199.224 9.65249V14.1931H127.376V9.65249C127.376 4.74369 131.36 0.76001 136.268 0.76001Z"
      fill="#BDC4CF"
      stroke="black"
      strokeWidth="0.3776"
      stroke-miterlimit="10"
    />
    <path
      d="M166.713 161.455H31.9362C28.8591 161.455 26.368 158.964 26.368 155.887V50.0185C26.368 46.9414 28.8591 44.4504 31.9362 44.4504H166.713C169.79 44.4504 172.281 46.9414 172.281 50.0185V155.887C172.281 158.964 169.79 161.455 166.713 161.455Z"
      fill="url(#paint0_linear_48_43211)"
      stroke="black"
      strokeWidth="0.418659"
      stroke-miterlimit="10"
    />
    <path
      d="M131.682 85.5103H66.9572V131.741H131.682V85.5103Z"
      fill="url(#paint1_linear_48_43211)"
      stroke="black"
      strokeWidth="0.418659"
      stroke-miterlimit="10"
    />
    <path
      d="M172.281 61.0293H26.368V50.0499C26.368 46.9623 28.8695 44.4504 31.9676 44.4504H166.692C169.78 44.4504 172.292 46.9519 172.292 50.0499V61.0293H172.281Z"
      fill="black"
      stroke="black"
      strokeWidth="0.418659"
      stroke-miterlimit="10"
    />
    <path
      d="M139.27 80.9469H59.3689V137.204H139.27V80.9469Z"
      stroke="black"
      strokeWidth="0.418659"
      stroke-miterlimit="10"
    />
    <path
      d="M150.427 74.3426H48.2219V145.483H150.427V74.3426Z"
      stroke="black"
      strokeWidth="0.418659"
      stroke-miterlimit="10"
    />
    <path
      d="M161.03 67.9999H37.63V153.176H161.03V67.9999Z"
      stroke="black"
      strokeWidth="0.418659"
      stroke-miterlimit="10"
    />
    <path
      d="M131.682 85.5627H66.9677V131.783H131.682V85.5627Z"
      stroke="black"
      strokeWidth="0.418659"
      stroke-miterlimit="10"
    />
    <path d="M26.3682 60.9561H172.281" stroke="black" strokeWidth="0.418659" stroke-miterlimit="10" />
    <path d="M131.682 85.5627L172.281 60.9561" stroke="black" strokeWidth="0.418659" stroke-miterlimit="10" />
    <path d="M131.682 131.783L170.052 159.969" stroke="black" strokeWidth="0.418659" stroke-miterlimit="10" />
    <path d="M66.9676 85.5627L26.3682 60.9561" stroke="black" strokeWidth="0.418659" stroke-miterlimit="10" />
    <path d="M66.9675 131.783L27.959 160.241" stroke="black" strokeWidth="0.418659" stroke-miterlimit="10" />
    <path
      d="M76.2095 85.5627H66.9677V94.8046H76.2095V85.5627Z"
      stroke="black"
      strokeWidth="0.418659"
      stroke-miterlimit="10"
    />
    <path
      d="M85.4514 85.5627H76.2095V94.8046H85.4514V85.5627Z"
      stroke="black"
      strokeWidth="0.418659"
      stroke-miterlimit="10"
    />
    <path
      d="M94.7036 85.5627H85.4617V94.8046H94.7036V85.5627Z"
      stroke="black"
      strokeWidth="0.418659"
      stroke-miterlimit="10"
    />
    <path
      d="M103.946 85.5627H94.7037V94.8046H103.946V85.5627Z"
      stroke="black"
      strokeWidth="0.418659"
      stroke-miterlimit="10"
    />
    <path
      d="M113.188 85.5627H103.946V94.8046H113.188V85.5627Z"
      stroke="black"
      strokeWidth="0.418659"
      stroke-miterlimit="10"
    />
    <path
      d="M122.429 85.5627H113.187V94.8046H122.429V85.5627Z"
      stroke="black"
      strokeWidth="0.418659"
      stroke-miterlimit="10"
    />
    <path
      d="M131.682 85.5627H122.44V94.8046H131.682V85.5627Z"
      stroke="black"
      strokeWidth="0.418659"
      stroke-miterlimit="10"
    />
    <path
      d="M76.2095 94.8046H66.9677V104.046H76.2095V94.8046Z"
      stroke="black"
      strokeWidth="0.418659"
      stroke-miterlimit="10"
    />
    <path
      d="M85.4514 94.8046H76.2095V104.046H85.4514V94.8046Z"
      stroke="black"
      strokeWidth="0.418659"
      stroke-miterlimit="10"
    />
    <path
      d="M94.7036 94.8046H85.4617V104.046H94.7036V94.8046Z"
      stroke="black"
      strokeWidth="0.418659"
      stroke-miterlimit="10"
    />
    <path
      d="M103.946 94.8046H94.7037V104.046H103.946V94.8046Z"
      stroke="black"
      strokeWidth="0.418659"
      stroke-miterlimit="10"
    />
    <path
      d="M113.188 94.8046H103.946V104.046H113.188V94.8046Z"
      stroke="black"
      strokeWidth="0.418659"
      stroke-miterlimit="10"
    />
    <path
      d="M122.429 94.8046H113.187V104.046H122.429V94.8046Z"
      stroke="black"
      strokeWidth="0.418659"
      stroke-miterlimit="10"
    />
    <path
      d="M131.682 94.8046H122.44V104.046H131.682V94.8046Z"
      stroke="black"
      strokeWidth="0.418659"
      stroke-miterlimit="10"
    />
    <path
      d="M76.2095 104.046H66.9677V113.288H76.2095V104.046Z"
      stroke="black"
      strokeWidth="0.418659"
      stroke-miterlimit="10"
    />
    <path
      d="M85.4514 104.046H76.2095V113.288H85.4514V104.046Z"
      stroke="black"
      strokeWidth="0.418659"
      stroke-miterlimit="10"
    />
    <path
      d="M94.7036 104.046H85.4617V113.288H94.7036V104.046Z"
      stroke="black"
      strokeWidth="0.418659"
      stroke-miterlimit="10"
    />
    <path
      d="M103.946 104.046H94.7037V113.288H103.946V104.046Z"
      stroke="black"
      strokeWidth="0.418659"
      stroke-miterlimit="10"
    />
    <path
      d="M113.188 104.046H103.946V113.288H113.188V104.046Z"
      stroke="black"
      strokeWidth="0.418659"
      stroke-miterlimit="10"
    />
    <path
      d="M122.429 104.046H113.187V113.288H122.429V104.046Z"
      stroke="black"
      strokeWidth="0.418659"
      stroke-miterlimit="10"
    />
    <path
      d="M131.682 104.046H122.44V113.288H131.682V104.046Z"
      stroke="black"
      strokeWidth="0.418659"
      stroke-miterlimit="10"
    />
    <path
      d="M76.2095 113.299H66.9677V122.541H76.2095V113.299Z"
      stroke="black"
      strokeWidth="0.418659"
      stroke-miterlimit="10"
    />
    <path
      d="M85.4514 113.299H76.2095V122.541H85.4514V113.299Z"
      stroke="black"
      strokeWidth="0.418659"
      stroke-miterlimit="10"
    />
    <path
      d="M94.7036 113.299H85.4617V122.541H94.7036V113.299Z"
      stroke="black"
      strokeWidth="0.418659"
      stroke-miterlimit="10"
    />
    <path
      d="M103.946 113.299H94.7037V122.541H103.946V113.299Z"
      stroke="black"
      strokeWidth="0.418659"
      stroke-miterlimit="10"
    />
    <path
      d="M113.188 113.299H103.946V122.541H113.188V113.299Z"
      stroke="black"
      strokeWidth="0.418659"
      stroke-miterlimit="10"
    />
    <path
      d="M122.429 113.299H113.187V122.541H122.429V113.299Z"
      stroke="black"
      strokeWidth="0.418659"
      stroke-miterlimit="10"
    />
    <path
      d="M131.682 113.299H122.44V122.541H131.682V113.299Z"
      stroke="black"
      strokeWidth="0.418659"
      stroke-miterlimit="10"
    />
    <path
      d="M76.2095 122.541H66.9677V131.783H76.2095V122.541Z"
      stroke="black"
      strokeWidth="0.418659"
      stroke-miterlimit="10"
    />
    <path
      d="M85.4514 122.541H76.2095V131.783H85.4514V122.541Z"
      stroke="black"
      strokeWidth="0.418659"
      stroke-miterlimit="10"
    />
    <path
      d="M94.7036 122.541H85.4617V131.783H94.7036V122.541Z"
      stroke="black"
      strokeWidth="0.418659"
      stroke-miterlimit="10"
    />
    <path
      d="M103.946 122.541H94.7037V131.783H103.946V122.541Z"
      stroke="black"
      strokeWidth="0.418659"
      stroke-miterlimit="10"
    />
    <path
      d="M113.188 122.541H103.946V131.783H113.188V122.541Z"
      stroke="black"
      strokeWidth="0.418659"
      stroke-miterlimit="10"
    />
    <path
      d="M122.429 122.541H113.187V131.783H122.429V122.541Z"
      stroke="black"
      strokeWidth="0.418659"
      stroke-miterlimit="10"
    />
    <path
      d="M131.682 122.541H122.44V131.783H131.682V122.541Z"
      stroke="black"
      strokeWidth="0.418659"
      stroke-miterlimit="10"
    />
    <path d="M131.682 94.8045L172.281 80.9469" stroke="black" strokeWidth="0.418659" stroke-miterlimit="10" />
    <path d="M131.682 104.046L172.281 101.074" stroke="black" strokeWidth="0.418659" stroke-miterlimit="10" />
    <path d="M131.682 122.541L172.281 141.328" stroke="black" strokeWidth="0.418659" stroke-miterlimit="10" />
    <path d="M131.682 113.299L172.281 121.201" stroke="black" strokeWidth="0.418659" stroke-miterlimit="10" />
    <path d="M66.9676 94.8045L26.3682 80.9469" stroke="black" strokeWidth="0.418659" stroke-miterlimit="10" />
    <path d="M66.9676 104.046L26.3682 101.074" stroke="black" strokeWidth="0.418659" stroke-miterlimit="10" />
    <path d="M66.9676 122.541L26.3682 141.328" stroke="black" strokeWidth="0.418659" stroke-miterlimit="10" />
    <path d="M66.9676 113.299L26.3682 121.201" stroke="black" strokeWidth="0.418659" stroke-miterlimit="10" />
    <path d="M47.3743 60.9141L76.2094 85.5627" stroke="black" strokeWidth="0.418659" stroke-miterlimit="10" />
    <path d="M68.1816 60.9561L85.4618 85.5627" stroke="black" strokeWidth="0.418659" stroke-miterlimit="10" />
    <path d="M88.9471 60.9561L94.7037 85.5627" stroke="black" strokeWidth="0.418659" stroke-miterlimit="10" />
    <path d="M109.702 60.9561L103.946 85.5627" stroke="black" strokeWidth="0.418659" stroke-miterlimit="10" />
    <path d="M130.468 60.9561L113.187 85.5627" stroke="black" strokeWidth="0.418659" stroke-miterlimit="10" />
    <path d="M151.223 60.9561L122.44 85.5627" stroke="black" strokeWidth="0.418659" stroke-miterlimit="10" />
    <path d="M47.2068 161.455L76.2094 131.783" stroke="black" strokeWidth="0.418659" stroke-miterlimit="10" />
    <path d="M68.0562 161.455L85.4619 131.783" stroke="black" strokeWidth="0.418659" stroke-miterlimit="10" />
    <path d="M88.9053 161.455L94.7037 131.783" stroke="black" strokeWidth="0.418659" stroke-miterlimit="10" />
    <path d="M109.744 161.455L103.946 131.783" stroke="black" strokeWidth="0.418659" stroke-miterlimit="10" />
    <path d="M130.593 161.455L113.187 131.783" stroke="black" strokeWidth="0.418659" stroke-miterlimit="10" />
    <path d="M151.442 161.455L122.44 131.783" stroke="black" strokeWidth="0.418659" stroke-miterlimit="10" />
    <path
      d="M139.595 58.9569C142.832 58.9569 145.456 56.3328 145.456 53.0957C145.456 49.8587 142.832 47.2345 139.595 47.2345C136.357 47.2345 133.733 49.8587 133.733 53.0957C133.733 56.3328 136.357 58.9569 139.595 58.9569Z"
      fill="url(#paint2_linear_48_43211)"
      stroke="black"
      strokeWidth="0.418659"
      stroke-miterlimit="10"
    />
    <path
      d="M151.317 58.9569C154.554 58.9569 157.178 56.3328 157.178 53.0957C157.178 49.8587 154.554 47.2345 151.317 47.2345C148.08 47.2345 145.456 49.8587 145.456 53.0957C145.456 56.3328 148.08 58.9569 151.317 58.9569Z"
      fill="url(#paint3_linear_48_43211)"
      stroke="black"
      strokeWidth="0.418659"
      stroke-miterlimit="10"
    />
    <path
      d="M165.31 58.4968C168.294 57.2415 169.695 53.8049 168.44 50.821C167.184 47.837 163.748 46.4357 160.764 47.6911C157.78 48.9464 156.379 52.383 157.634 55.3669C158.889 58.3509 162.326 59.7522 165.31 58.4968Z"
      fill="#BDC4CF"
      stroke="black"
      strokeWidth="0.418659"
      stroke-miterlimit="10"
    />
    <path
      d="M157.168 52.8445C158.298 51.0338 160.496 49.7988 163.029 49.7988C165.562 49.7988 167.76 51.0338 168.89 52.8445C167.749 54.6552 165.562 55.8798 163.039 55.8798C160.506 55.8903 158.298 54.6657 157.168 52.8445Z"
      stroke="black"
      strokeWidth="0.418659"
      stroke-miterlimit="10"
    />
    <path
      d="M164.322 55.6693C165.874 55.0211 166.607 53.2374 165.959 51.6851C165.311 50.1329 163.527 49.3999 161.975 50.048C160.422 50.6962 159.689 52.4799 160.337 54.0322C160.986 55.5844 162.769 56.3174 164.322 55.6693Z"
      fill="white"
      stroke="black"
      strokeWidth="0.418659"
      stroke-miterlimit="10"
    />
    <path
      d="M154.499 49.3068H149.862V55.9949H154.499V49.3068Z"
      fill="white"
      stroke="black"
      strokeWidth="0.418659"
      stroke-miterlimit="10"
    />
    <path
      d="M152.761 50.207H148.125V56.895H152.761V50.207Z"
      fill="white"
      stroke="black"
      strokeWidth="0.418659"
      stroke-miterlimit="10"
    />
    <path d="M139.595 49.9243V56.267" stroke="black" strokeWidth="0.418659" stroke-miterlimit="10" />
    <path d="M136.423 53.0956H142.766" stroke="black" strokeWidth="0.418659" stroke-miterlimit="10" />
    <defs>
      <linearGradient
        id="paint0_linear_48_43211"
        x1="17.8319"
        y1="168.248"
        x2="159.835"
        y2="54.4748"
        gradientUnits="userSpaceOnUse"
      >
        <stop stop-color="#3885FF" />
        <stop offset="1" stop-color="#635DFF" />
      </linearGradient>
      <linearGradient
        id="paint1_linear_48_43211"
        x1="99.3214"
        y1="181.527"
        x2="99.3214"
        y2="55.6684"
        gradientUnits="userSpaceOnUse"
      >
        <stop stop-color="#BBC2CD" />
        <stop offset="0.9734" stop-color="white" />
      </linearGradient>
      <linearGradient
        id="paint2_linear_48_43211"
        x1="133.735"
        y1="53.1006"
        x2="145.453"
        y2="53.1006"
        gradientUnits="userSpaceOnUse"
      >
        <stop offset="0.0438" stop-color="#FF4F40" />
        <stop offset="1" stop-color="#FC44DD" />
      </linearGradient>
      <linearGradient
        id="paint3_linear_48_43211"
        x1="145.453"
        y1="53.1006"
        x2="157.171"
        y2="53.1006"
        gradientUnits="userSpaceOnUse"
      >
        <stop stop-color="#2BC8A0" />
        <stop offset="1" stop-color="#47C7E9" />
      </linearGradient>
    </defs>
  </svg>