<svg width="1em" height="1em" viewBox="0 0 251 250" fill="none" xmlns="http://www.w3.org/2000/svg" font-size="12.5em" class="sc-kypQjZ"><path d="M131.761 168.505c0 10.723-2.995 36.032-2.995 36.032l-9.046-1.367-90.884-13.339-.949-.14c-7.448-1.018-12.65-7.668-12.58-16.094.08-10.753 8.517-19.619 19.52-23.363l49.91-17.741 107.757 14.397-60.753 21.615-103.454-15.186" fill="url(#new-auth0-user-a_svg_paint0_linear_1402_236)"></path><path d="M131.761 168.505c0 10.723-2.995 36.032-2.995 36.032l-9.046-1.367-90.884-13.339-.949-.14c-7.448-1.018-12.65-7.668-12.58-16.094.08-10.753 8.517-19.619 19.52-23.363l49.91-17.741 107.757 14.397-60.753 21.615-103.454-15.186" stroke="#000" stroke-width="0.4" stroke-miterlimit="10"></path><path d="M135.894 167.008l54.503-19.219v36.621l-55.172 19.658c-10.253 2.896-18.31-4.572-18.23-14.766.079-10.194 8.107-18.82 18.52-22.164l.379-.13z" fill="url(#new-auth0-user-a_svgpaint1_linear_1402_236)" stroke="#000" stroke-width="0.4" stroke-miterlimit="10"></path><path d="M117.015 188.553c1.008-14.078 14.746-20.038 14.746-20.038l4.702-1.697 56.051-19.918v1.967l-56.41 20.127c-10.204 3.275-17.103 11.442-17.173 20.328-.039 4.632 1.788 8.706 5.002 11.152 2.926 2.236 6.73 2.855 10.703 1.757l57.997-20.647v2.027l-56.11 19.998s-8.746 3.904-15.495-3.165c-2.236-2.227-4.413-6.889-4.013-11.881v-.01z" fill="#BAC1CD" stroke="#000" stroke-width="0.4" stroke-miterlimit="10"></path><path d="M153.247 124.126c0 10.723-3.105 36.023-3.105 36.023l-8.926-1.358-90.885-13.339-.948-.14c-7.448-1.018-12.65-7.667-12.58-16.094.08-10.753 8.516-19.618 19.519-23.362l49.91-17.742 107.757 14.397-60.752 21.615-103.475-15.195" fill="url(#new-auth0-user-a_svgpaint2_linear_1402_236)"></path><path d="M153.247 124.126c0 10.723-3.105 36.023-3.105 36.023l-8.926-1.358-90.885-13.339-.948-.14c-7.448-1.018-12.65-7.667-12.58-16.094.08-10.753 8.516-19.618 19.519-23.362l49.91-17.742 107.757 14.397-60.752 21.615-103.475-15.195" stroke="#000" stroke-width="0.4" stroke-miterlimit="10"></path><path d="M157.38 122.629l54.503-19.22v36.622l-55.172 19.658c-10.254 2.896-18.311-4.572-18.231-14.766.08-10.194 8.107-18.82 18.521-22.165l.379-.129z" fill="#fff" stroke="#000" stroke-width="0.4" stroke-miterlimit="10"></path><path d="M139.069 140.3c3.225-13.628 18.88-17.871 18.88-17.871l56.05-19.918v1.967l-56.409 20.127c-10.204 3.275-17.103 11.442-17.173 20.328-.04 4.632 1.787 8.706 5.002 11.152 2.925 2.236 6.729 2.855 10.703 1.757l57.997-20.647v2.027l-56.11 19.998c-12.201 4.113-22.165-5.292-18.94-18.92z" fill="#BAC1CD" stroke="#000" stroke-width="0.4" stroke-miterlimit="10"></path><path d="M175.661 79.378c0 10.723-2.696 36.072-2.696 36.072l-9.335-1.417-90.884-13.339-.949-.14c-7.448-1.018-12.65-7.668-12.58-16.094.08-10.753 8.517-19.619 19.519-23.363l49.92-17.741 107.757 14.397-60.752 21.615L72.186 64.182" fill="url(#new-auth0-user-a_svgpaint3_linear_1402_236)"></path><path d="M175.661 79.378c0 10.723-2.696 36.072-2.696 36.072l-9.335-1.417-90.884-13.339-.949-.14c-7.448-1.018-12.65-7.668-12.58-16.094.08-10.753 8.517-19.619 19.519-23.363l49.92-17.741 107.757 14.397-60.752 21.615L72.186 64.182" stroke="#000" stroke-width="0.4" stroke-linecap="round" stroke-linejoin="round"></path><path d="M179.834 77.89l54.463-19.379v36.761l-55.172 19.659c-10.253 2.895-18.311-4.573-18.231-14.766.08-10.194 8.107-18.78 18.521-22.125l.419-.15z" fill="#fff" stroke="#000" stroke-width="0.4" stroke-linecap="round" stroke-linejoin="round"></path><path d="M171.937 115.28c-5.991-1.258-9.924-6.06-10.863-12.38-1.088-6.969 2.606-12.74 2.606-12.74 5.371-8.955 14.137-11.551 14.137-11.551l2.626-.938 55.97-19.919v1.967l-56.409 20.128c-10.204 3.275-17.103 11.442-17.173 20.328-.04 4.632 1.787 8.706 5.002 11.152 2.926 2.236 6.729 2.855 10.703 1.757l57.997-20.647v2.027l-56.11 19.998c-1.358.329-3.604 1.667-8.486.808v.01z" fill="#BAC1CD" stroke="#000" stroke-width="0.4" stroke-miterlimit="10"></path><path d="M126.939 50.274l-23.413 8.317c-.848.3-.729 1.547.16 1.677l44.559 6.61c2.206.33 4.462.11 6.569-.64l24.131-8.585c.689-.24.579-1.248-.139-1.338l-48.233-6.42a7.87 7.87 0 00-3.634.38z" fill="url(#new-auth0-user-a_svgpaint4_linear_1402_236)" stroke="#000" stroke-width="0.4" stroke-miterlimit="10"></path><path d="M195.559 60.518l-23.892 8.506c-1.987.72-2.506 2.167.27 2.676 0 0 4.842.938 8.706-.6l22.564-8.026s2.326-.859 1.677-2.217c-.409-.878-1.937-1.118-1.937-1.118-2.466-.45-5.022-.06-7.388.779z" fill="url(#new-auth0-user-a_svgpaint5_linear_1402_236)" stroke="#000" stroke-width="0.4" stroke-miterlimit="10"></path><path d="M234.297 60.498l-56.48 20.138" stroke="#000" stroke-width="0.4" stroke-linecap="round" stroke-linejoin="round"></path><path d="M234.297 65.77l-68.351 24.381M234.297 71.13l-71.036 25.34M234.297 76.652l-71.346 25.46M234.297 82.363l-69.848 24.92M234.297 88.344l-65.795 23.462M211.873 110.638l-68.341 24.381M211.873 115.999l-71.027 25.339M211.873 121.521l-71.336 25.449M211.873 127.231l-69.789 24.89M211.873 133.202l-65.675 23.432M190.367 154.907l-68.35 24.381M190.367 160.258l-71.036 25.34M190.367 165.79l-71.346 25.449M190.367 171.49l-69.798 24.901M190.367 177.471l-65.675 23.432" stroke="#000" stroke-width="0.4" stroke-miterlimit="10"></path><path d="M234.297 93.236l-55.761 19.848" stroke="#000" stroke-width="0.4" stroke-linecap="round" stroke-linejoin="round"></path><path d="M203.556 61.477c0 .529-1.288.958-2.865.958-1.578 0-2.866-.43-2.866-.959 0-.529 1.288-.958 2.866-.958 1.577 0 2.865.43 2.865.959z" fill="#fff" stroke="#000" stroke-width="0.4" stroke-miterlimit="10"></path><path d="M108.069 59.13c0 .22-.429.39-.959.39-.529 0-.958-.18-.958-.39 0-.21.429-.389.958-.389.53 0 .959.18.959.39zM110.565 58.342c0 .22-.429.39-.959.39-.529 0-.958-.18-.958-.39 0-.21.429-.39.958-.39.53 0 .959.18.959.39zM113.061 57.553c0 .22-.429.39-.959.39-.529 0-.958-.18-.958-.39 0-.21.429-.39.958-.39.53 0 .959.18.959.39z" fill="#fff" stroke="#000" stroke-width="0.4" stroke-linecap="round" stroke-linejoin="round"></path><path d="M130.074 152.122c-1.438-2.357-2.247-5.252-2.217-8.427.04-4.822 1.947-9.225 5.072-12.839M125.331 151.512c-1.437-2.356-2.246-5.251-2.216-8.426.04-4.822 1.947-9.225 5.072-12.84M109.517 194.883c-1.438-2.356-2.247-5.251-2.217-8.426.04-4.822 1.947-9.225 5.072-12.84M104.774 194.264c-1.438-2.356-2.246-5.252-2.216-8.427.04-4.822 1.947-9.225 5.072-12.839M154.405 107.413c-1.438-2.356-2.247-5.251-2.217-8.426.04-4.823 1.947-9.226 5.072-12.84M149.662 106.794c-1.437-2.356-2.246-5.251-2.216-8.426.04-4.822 1.947-9.225 5.072-12.84" stroke="#000" stroke-width="0.4" stroke-linecap="round" stroke-linejoin="round"></path><path d="M127.638 95.392l-5.442 10.414-18.929-2.776 5.441-10.423-4.892-.72-57.678 110.544 4.892.719 10.384-19.898 18.93 2.775-10.384 19.898 4.892.719L132.52 96.121l-4.882-.729zm-7.728 14.797l-5.671 10.872-18.93-2.775 5.671-10.873 18.93 2.776zm-40.285 38.149l5.61-10.753 18.93 2.775-5.61 10.753-18.93-2.775zm16.643 7.158l-5.691 10.903-18.93-2.776 5.691-10.902 18.93 2.775zm-8.746-22.294l5.501-10.543 18.93 2.775-5.501 10.543-18.93-2.775zM63.69 178.869l5.67-10.873 18.93 2.776-5.67 10.872-18.93-2.775z" fill="#BAC1CD" stroke="#000" stroke-width="0.4" stroke-miterlimit="10"></path><path d="M46.242 177.717l-13.34-1.79-.36 4.54-2.51-.34c.13-3.02-.87-4.86-3-5.52l.28-3.49 19.26 2.58-.32 4.01-.01.01zM66.325 138.302a8.171 8.171 0 01-3.14-1.35c-.97-.68-1.74-1.36-2.32-2.06-.58-.7-1.16-1.54-1.77-2.52-.22-.34-.54-.88-.96-1.61-.42-.73-.75-1.28-.99-1.64-.24-.36-.54-.78-.91-1.26-.37-.47-.76-.83-1.16-1.07-.4-.24-.84-.4-1.3-.47-.9-.15-1.64-.03-2.2.36-.56.39-.87 1.01-.93 1.86-.06.99.22 1.81.85 2.48.63.67 1.56 1.11 2.8 1.33l-.23 3.64c-2.21-.36-3.91-1.23-5.08-2.6s-1.68-3.19-1.54-5.47c.13-2.05.81-3.57 2.05-4.57 1.24-.99 2.71-1.35 4.43-1.07.85.14 1.61.39 2.29.76.68.37 1.28.88 1.82 1.52s.96 1.21 1.26 1.7c.3.49.68 1.17 1.13 2.02 1.19 2.34 2.24 3.83 3.13 4.48l.57-8.99 3.1.51-.89 14-.01.02zM90.379 86.078c-.21 2.54-1 4.38-2.36 5.53-1.36 1.14-3.12 1.56-5.28 1.24l.32-3.81c2.62.27 4.03-.83 4.24-3.31.09-1.11-.11-2.03-.61-2.74-.5-.72-1.24-1.15-2.21-1.31-.97-.16-1.69.04-2.27.58-.58.54-.92 1.41-1.02 2.63l-.1 1.23-2.89-.48.1-1.14c.08-.98-.08-1.8-.48-2.47-.4-.67-1-1.07-1.81-1.2-.81-.13-1.4.03-1.9.46-.5.43-.79 1.09-.86 1.97-.09 1.09.15 1.99.71 2.69.57.7 1.38 1.15 2.42 1.36l-.32 3.81c-1.94-.4-3.43-1.32-4.47-2.76-1.04-1.44-1.46-3.3-1.27-5.59.18-2.11.79-3.71 1.83-4.8 1.04-1.09 2.36-1.5 3.95-1.24 1.99.33 3.24 1.69 3.76 4.09h.06c.87-2.6 2.59-3.69 5.18-3.27 1.91.31 3.32 1.27 4.22 2.86.9 1.59 1.26 3.49 1.08 5.67h-.02z" fill="#fff" stroke="#000" stroke-width="0.4" stroke-linecap="round" stroke-linejoin="round"></path><defs><linearGradient id="new-auth0-user-a_svgpaint0_linear_1402_236" x1="15.317" y1="168.515" x2="192.514" y2="168.515" gradientUnits="userSpaceOnUse"><stop stop-color="#E8EBED"></stop><stop offset="1" stop-color="#fff"></stop></linearGradient><linearGradient id="new-auth0-user-a_svgpaint1_linear_1402_236" x1="116.995" y1="176.243" x2="190.387" y2="176.243" gradientUnits="userSpaceOnUse"><stop stop-color="#E8EBED"></stop><stop offset="1" stop-color="#fff"></stop></linearGradient><linearGradient id="new-auth0-user-a_svgpaint2_linear_1402_236" x1="36.803" y1="124.126" x2="213.999" y2="124.126" gradientUnits="userSpaceOnUse"><stop stop-color="#3983FD"></stop><stop offset="0.35" stop-color="#3983FD"></stop><stop offset="0.78" stop-color="#6256FF"></stop><stop offset="1" stop-color="#6256FF"></stop></linearGradient><linearGradient id="new-auth0-user-a_svgpaint3_linear_1402_236" x1="59.208" y1="79.402" x2="236.403" y2="79.402" gradientUnits="userSpaceOnUse"><stop stop-color="#FF4F40"></stop><stop offset="1" stop-color="#F4D"></stop></linearGradient><linearGradient id="new-auth0-user-a_svgpaint4_linear_1402_236" x1="102.957" y1="58.431" x2="179.415" y2="58.431" gradientUnits="userSpaceOnUse"><stop stop-color="#E8EBED"></stop><stop offset="1" stop-color="#fff"></stop></linearGradient><linearGradient id="new-auth0-user-a_svg_paint5_linear_1402_236" x1="164.824" y1="60.025" x2="168.279" y2="79.159" gradientUnits="userSpaceOnUse"><stop stop-color="#3EC6EB"></stop><stop offset="0.999" stop-color="#1BC99F"></stop></linearGradient></defs></svg>