<svg width="64" height="64" viewBox="0 0 64 64" fill="none" xmlns="http://www.w3.org/2000/svg">
<path fill-rule="evenodd" clip-rule="evenodd" d="M38.2645 15.3173V15.6712C38.2622 15.9471 38.1515 16.2111 37.9563 16.4062C37.7612 16.6014 37.4972 16.7121 37.2213 16.7145H26.761C26.485 16.7121 26.221 16.6014 26.0259 16.4062C25.8307 16.2111 25.72 15.9471 25.7176 15.6712V15.3264C25.718 15.2838 25.7092 15.2417 25.692 15.2028C25.6747 15.1639 25.6494 15.1291 25.6176 15.1008C25.5858 15.0724 25.5484 15.0512 25.5077 15.0385C25.4671 15.0258 25.4242 15.0218 25.382 15.027C24.0932 15.2203 22.9166 15.8696 22.0659 16.8568C21.2152 17.844 20.7469 19.1036 20.7461 20.4068V43.5319C20.7461 44.9756 21.3196 46.3601 22.3404 47.3809C23.3613 48.4018 24.7458 48.9752 26.1894 48.9752H37.8109C39.2546 48.9752 40.6391 48.4018 41.66 47.3809C42.6808 46.3601 43.2543 44.9756 43.2543 43.5319V20.4068C43.2528 19.1009 42.782 17.8391 41.9276 16.8515C41.0732 15.8639 39.8923 15.2164 38.6002 15.027C38.5585 15.0204 38.5158 15.023 38.4752 15.0346C38.4345 15.0462 38.3969 15.0665 38.3649 15.0942C38.333 15.1218 38.3074 15.1561 38.2901 15.1946C38.2727 15.2332 38.264 15.2751 38.2645 15.3173V15.3173Z" fill="black"/>
<path d="M27.1963 21.625H26.2891C25.5375 21.625 24.9282 22.2343 24.9282 22.9858V23.8931C24.9282 24.6446 25.5375 25.2539 26.2891 25.2539H27.1963C27.9478 25.2539 28.5571 24.6446 28.5571 23.8931V22.9858C28.5571 22.2343 27.9478 21.625 27.1963 21.625Z" fill="#546BFF"/>
<path d="M32.4585 21.625H31.5513C30.7997 21.625 30.1904 22.2343 30.1904 22.9858V23.8931C30.1904 24.6446 30.7997 25.2539 31.5513 25.2539H32.4585C33.21 25.2539 33.8193 24.6446 33.8193 23.8931V22.9858C33.8193 22.2343 33.21 21.625 32.4585 21.625Z" fill="#CCD2DC"/>
<path d="M37.7202 21.625H36.813C36.0614 21.625 35.4521 22.2343 35.4521 22.9858V23.8931C35.4521 24.6446 36.0614 25.2539 36.813 25.2539H37.7202C38.4718 25.2539 39.081 24.6446 39.081 23.8931V22.9858C39.081 22.2343 38.4718 21.625 37.7202 21.625Z" fill="#FF4D65"/>
<path d="M27.1963 27.0938H26.2891C25.5375 27.0938 24.9282 27.703 24.9282 28.4546V29.3618C24.9282 30.1134 25.5375 30.7226 26.2891 30.7226H27.1963C27.9478 30.7226 28.5571 30.1134 28.5571 29.3618V28.4546C28.5571 27.703 27.9478 27.0938 27.1963 27.0938Z" fill="#CCD2DC"/>
<path d="M32.4585 27.0938H31.5513C30.7997 27.0938 30.1904 27.703 30.1904 28.4546V29.3618C30.1904 30.1134 30.7997 30.7226 31.5513 30.7226H32.4585C33.21 30.7226 33.8193 30.1134 33.8193 29.3618V28.4546C33.8193 27.703 33.21 27.0938 32.4585 27.0938Z" fill="#FF4D65"/>
<path d="M37.7202 27.0938H36.813C36.0614 27.0938 35.4521 27.703 35.4521 28.4546V29.3618C35.4521 30.1134 36.0614 30.7226 36.813 30.7226H37.7202C38.4718 30.7226 39.081 30.1134 39.081 29.3618V28.4546C39.081 27.703 38.4718 27.0938 37.7202 27.0938Z" fill="#546BFF"/>
<path d="M27.1963 32.5742H26.2891C25.5375 32.5742 24.9282 33.1835 24.9282 33.9351V34.8423C24.9282 35.5938 25.5375 36.2031 26.2891 36.2031H27.1963C27.9478 36.2031 28.5571 35.5938 28.5571 34.8423V33.9351C28.5571 33.1835 27.9478 32.5742 27.1963 32.5742Z" fill="#546BFF"/>
<path d="M32.4585 32.5742H31.5513C30.7997 32.5742 30.1904 33.1835 30.1904 33.9351V34.8423C30.1904 35.5938 30.7997 36.2031 31.5513 36.2031H32.4585C33.21 36.2031 33.8193 35.5938 33.8193 34.8423V33.9351C33.8193 33.1835 33.21 32.5742 32.4585 32.5742Z" fill="#CCD2DC"/>
</svg>
