<svg width="32" height="32" viewBox="0 0 32 32" fill="none" xmlns="http://www.w3.org/2000/svg">
<path fill-rule="evenodd" clip-rule="evenodd" d="M30.4196 9.07417L30.5589 9.37889L30.5567 9.3593C31.9914 12.5041 32.369 16.029 31.6331 19.4063C30.8972 22.7837 29.0874 25.8319 26.4745 28.0948C23.8615 30.3577 20.586 31.7135 17.1382 31.9594C13.6904 32.2053 10.2556 31.3281 7.34797 29.4589C4.44033 27.5898 2.21621 24.8292 1.00845 21.5905C-0.199301 18.3518 -0.325731 14.809 0.648085 11.4924C1.6219 8.17581 3.64359 5.26377 6.41059 3.1921C9.17758 1.12043 12.5411 0.000546007 15.9977 4.96466e-05C18.5507 -0.00634592 21.0674 0.605266 23.3327 1.78266L23.6309 1.9372L23.3697 2.15485C22.7261 2.66865 22.2193 3.33327 21.894 4.08982L21.8048 4.30748L21.6002 4.20954C18.8404 2.89912 15.7089 2.59617 12.7492 3.35324C9.78935 4.1103 7.18797 5.87962 5.39633 8.35421C3.6047 10.8288 2.73587 13.8525 2.94059 16.9007C3.14531 19.9489 4.41066 22.8293 6.5171 25.0421C8.62355 27.2549 11.4382 28.6605 14.4726 29.015C17.5071 29.3695 20.5699 28.6505 23.1296 26.9828C25.6894 25.3151 27.5846 22.804 28.4864 19.885C29.3882 16.9661 29.2398 13.8235 28.0668 11.0026L27.9797 10.785L28.1973 10.7066C28.9689 10.4185 29.6574 9.94452 30.202 9.32665L30.4196 9.07417ZM26.4692 9.36141C28.3035 9.36141 29.7906 7.87434 29.7906 6.03996C29.7906 4.20557 28.3035 2.71851 26.4692 2.71851C24.6348 2.71851 23.1477 4.20557 23.1477 6.03996C23.1477 7.87434 24.6348 9.36141 26.4692 9.36141ZM15.9998 8.71496C14.5577 8.71496 13.148 9.1426 11.9489 9.9438C10.7498 10.745 9.81525 11.8838 9.26337 13.2161C8.71149 14.5485 8.5671 16.0146 8.84844 17.429C9.12979 18.8434 9.82423 20.1426 10.844 21.1623C11.8637 22.1821 13.1629 22.8765 14.5773 23.1579C15.9918 23.4392 17.4578 23.2948 18.7902 22.7429C20.1225 22.1911 21.2613 21.2565 22.0625 20.0574C22.8637 18.8583 23.2914 17.4486 23.2914 16.0065C23.2891 14.0734 22.5201 12.2201 21.1532 10.8531C19.7863 9.48622 17.933 8.71727 15.9998 8.71496Z" fill="#478AFF"/>
</svg>
