<svg width="40" height="40" viewBox="0 0 40 40" fill="none" xmlns="http://www.w3.org/2000/svg">
<path d="M26.3478 15.5749C24.2995 17.1208 23.8744 19.8647 23.8357 21.7198C20.5894 17.9324 29.8647 6.84058 19.314 0C25.8454 8.46377 10 16.8116 10 29.2947C10 34.2029 13.0531 38.4928 19.7778 40C26.3478 38.6087 29.6328 34.2029 29.6328 29.2947C29.5942 21.9903 25.0338 19.5556 26.3478 15.5749ZM19.7778 35.9807C16.1836 35.9807 13.285 33.0821 13.285 29.4879C13.285 25.8937 16.1836 22.9952 19.7778 22.9952C23.372 22.9952 26.2705 25.8937 26.2705 29.4879C26.2705 33.0821 23.3333 35.9807 19.7778 35.9807Z" fill="#FA6423"/>
</svg>
