<svg width="33" height="32" viewBox="0 0 33 32" fill="none" xmlns="http://www.w3.org/2000/svg">
<circle cx="16" cy="16" r="16" fill="#87B940"/>
<path d="M7.69228 24.9233C6.66664 24.4105 4.61536 22.5848 4.61536 19.3848C4.61536 15.3848 6.7692 12.3079 12.6154 11.0771C18.4615 9.84636 24.3077 11.3848 29.2307 2.46167C29.2307 2.46167 35.4885 17.7513 28 24.6156C24.3077 28.0001 16.3077 26.7694 13.5384 26.7694C12.0732 26.7694 10.7515 26.8591 9.96514 26.9496C9.70998 26.9987 9.46475 27.0411 9.23074 27.0771C9.3002 27.0424 9.56252 26.9959 9.96514 26.9496C15.5256 25.8798 25.8095 21.6497 27.6923 12.0002C27.6923 12.0002 23.3846 23.0771 7.69228 24.9233Z" fill="white" stroke="#87B940"/>
<circle cx="7.07691" cy="26.7691" r="1.53846" fill="white"/>
</svg>
